<svg id="Layer_1" data-name="Layer 1" xmlns="http://www.w3.org/2000/svg" viewBox="0 0 723.08 335.84"><defs><style>.cls-1{fill:#73a0be;}.cls-2{fill:#0f293f;}.cls-3{fill:#1b1b1b;}.cls-4{fill:#a7a6a8;}</style></defs><path class="cls-1" d="M419.13,230c4.24-1.06,8.55-.34,12.82-.59,1.89-.11,4,.61,5.48-1.36h4.15c1.82,2.17,4.33,1.34,6.55,1.35,34.66.05,69.31.12,104-.06,5.31,0,9.7,1,13.51,4.87,3.34,3.42,7.12,6.41,10.7,9.59,1.55,1.38,1.48,3.2,1.49,5.07.08,30.15-.09,60.29-.79,90.43-.08,3.49-1.17,4.86-4.64,4.49-4.11-.45-8.3.66-12.36-.67V285.69a2.9,2.9,0,0,0-2.45,3.32c.13,18.13-.52,36.27.42,54.39q-22,.17-43.91.33c-2,0-3.19-.7-3.07-2.89a10.75,10.75,0,0,1,0-1.5c2.5-11.31-3-17.83-12.33-23.46-15.17-9.15-29.69-19.4-44.43-29.25-8.15-5.45-16.19-11-24.3-16.55-2.06-1.4-4.29-3.24-6.81-1.81-2.23,1.26-1.17,3.92-1.23,6-.2,7-.24,14-.34,21C419,294.9,419,293,419,291.14Q419.09,260.56,419.13,230Z" transform="translate(-320.99 -214.34)"/><path class="cls-1" d="M775,343.31c15.4-38.41,30.37-75.76,45.45-113.36,2.45-.86,5.28-.83,8.09-.83q49.23,0,98.46,0a12.2,12.2,0,0,1,9,3.24c6.48,6,13.25,11.63,20,17.32a8.12,8.12,0,0,1,3.1,6.92c-.16,10.66-.23,21.32,0,32,.08,4-1.62,5.31-5.31,5.29-15.82,0-31.65,0-47.48,0-1,0-2.59,0-2.81-.5-2.37-5.31-7-3.35-10.83-3.38-18.32-.17-36.65,0-55-.17-3.69,0-5.92,1.09-7.26,4.58-2.56,6.63-6.17,12.84-8.18,19.71,1.73,1.6,3.66,1,5.38,1,15.16.07,30.32.18,45.48,0,4-.06,5,1.44,5.35,5.11.88,8.31-2.57,15.36-6.45,22-1.54,2.64-4.84,6.33-9.53,2.85-1.24-.92-3.53-.56-5.34-.56q-38.24-.06-76.47-.06C778.36,344.34,775.8,345.06,775,343.31Z" transform="translate(-320.99 -214.34)"/><path class="cls-1" d="M677,342.77c-3.52,2.45-7.41.87-11.1.88-26.15.11-52.3-.07-78.44.21-5.07.05-6.38-1.26-6.33-6.34.22-27.48,0-55,0-82.43,0-1.79-.48-3.66,1.11-6.41l42.06,37.94c2.5-3.91-.14-6.14-1.77-7.87-10-10.62-17.76-23-26.9-34.28-3.61-4.47-7.31-8.87-11.09-13.44,3.37-2.85,6.69-1.81,9.62-1.65,20.64,1.11,41.28.27,61.92.63.83,0,1.67,0,2.5,0,12.59,0,12.35.07,16,12.28,6.18,20.68,12.72,41.25,19.07,61.88,3.95,12.82,7.83,25.65,12,39.23-8.66.29-16.64.94-24.65-.32Q675.44,326,669.88,309c-1.16-3.55-2.72-6.79-.8-10.93,1.42-3-.39-6.37-4-7.37-3.21-.87-6,.21-7.33,3.53-1.47,3.55-.19,7,3,7.81,4.24,1.05,4.85,4.07,5.89,7.08,2.31,6.76,4.55,13.55,6.62,20.39C674.57,333.88,676.92,338,677,342.77Z" transform="translate(-320.99 -214.34)"/><path class="cls-1" d="M489.71,426.6a89.22,89.22,0,0,1,15.5.06c0,14.47,0,28.42.06,42.37,0,1.78-.9,2.74-2,3.79-2.83,2.82-5.64,5.66-8.52,8.43-2.4,2.31-5.14,4.3-2.33,8.25,1.06,1.49-.17,3.3-1.44,4.41-1.71,1.49-3.85,2.37-5.93.92-2.53-1.77-4.09-.72-6,1.06q-25.74,23.94-51.59,47.76c-3.59,3.33-11.23,4.92-15.16,2.08-13.46-9.73-27.1-19.22-39.92-29.81a9.68,9.68,0,0,1-1.31-1.74c2.33-4,6-6.62,9.24-9.64q27.28-25.59,54.79-51c3.73-3.43,5.71-7.06,5.23-12.19-.33-3.63.06-7.32-.09-11-.13-3,1-4.15,4.06-4.11,14.65.16,29.3.17,44,.23a9.59,9.59,0,0,0-.41,1.94q0,27.43,0,54.87c0,.87-.27,2.1,1.81,2.27Z" transform="translate(-320.99 -214.34)"/><path class="cls-1" d="M912.9,427.57c-5.26,6.47-10.38,13.17-16,19.46-2.76,3.1-2.91,5.8-1.43,9.44q15.4,37.93,30.56,76a28.53,28.53,0,0,1,1.92,5.65c1.68,9.61.5,11-9,11-15.17,0-30.33-.15-45.49.07-4.22.06-6.33-1.15-8.18-5.22q-20.52-45-41.74-89.61c-2-4.28-2.4-7.39,1.17-11.08A152.26,152.26,0,0,0,836,429.35a7.28,7.28,0,0,1,6.36-3.13q33.74.12,67.48.1A3,3,0,0,1,912.9,427.57Z" transform="translate(-320.99 -214.34)"/><path class="cls-1" d="M709,427c4.44-2.95,9.38-1.1,14.07-1.3,8.06-.33,8-.08,10.73,7.47.56,1.56.34,4.2,2.85,4,2.2-.14,2.34-2.48,2.85-4.19,2-6.75,2.85-7.42,9.57-7.42q33.18,0,66.34,0a41.28,41.28,0,0,1,9.69,1.23c-3.93,7.1-7.71,13.82-11.39,20.58-8,14.73-19.86,26.56-30.05,39.63-12.65,16.23-26,31.93-39,47.86q-10.17-30.47-20.33-60.95C719.17,458.3,714.12,442.64,709,427Z" transform="translate(-320.99 -214.34)"/><path class="cls-1" d="M728.9,528.89c-1.67-.44-2.95-.51-4.32,1.21-4.17,5.28-8.59,10.36-13,15.42-2.64,3-13.21,5-16.67,3.12-2.63-1.43-2.68-4.46-3.46-6.92C688,531,684.8,520.26,681.5,509.53q-5.7-18.52-11.41-37-6.44-21-12.8-42.06c-.33-1.08-.55-2.2-.8-3.24a7.71,7.71,0,0,1,5.36-1.55q20.48-.06,40.95,0c1.13,0,2.37-.2,3.18.95-.38,1.9.38,3.61.95,5.34,3.59,10.91,7.07,21.86,10.86,32.71,4.26,12.21,7.75,24.67,12.47,36.74,3,7.61,5.22,15.51,8.15,24.36C733,523,729.93,523.74,728.9,528.89Z" transform="translate(-320.99 -214.34)"/><path class="cls-1" d="M557.63,535c-15.1-12.7-29.84-25.82-44.43-39.1a6.39,6.39,0,0,1-2.26-5.21q.09-30.19.07-60.39c0-2.25.34-4,3.11-4,14.62.19,29.24-.52,43.85.38-.09,1.82-.26,3.64-.26,5.46Q557.65,483.56,557.63,535Z" transform="translate(-320.99 -214.34)"/><path class="cls-1" d="M625.6,502.18c-4.84-3.27-7.83-8-11.58-11.87-10.26-10.62-20.2-21.55-30.35-32.28a8.17,8.17,0,0,1-2.57-6.17c.13-7,.26-14,0-21-.12-3.91,1.55-4.95,5.08-4.66,8.06.65,16.3.78,24.23.63,9-.18,18.11.14,27.13-.65,3.95-.35,5.33,1.16,5.18,5.09-.26,6.48-.32,13,0,19.46.2,4.21-1.35,7-4.85,9-5,2.91-10,5.93-15.07,8.8-3.14,1.78-4.34,3.75-3,7.62,2.37,6.72,4,13.68,6,20.56C626.24,498.3,627.29,499.86,625.6,502.18Z" transform="translate(-320.99 -214.34)"/><path class="cls-1" d="M560,426.88c4.58-1.3,9.25-.46,13.88-.57,3.29-.08,2.92,2.51,2.93,4.66q.06,19,.09,38,0,37.72,0,75.45c0,1.77.36,3.63-1,5.79-6.53-2.82-10.26-9-16-12.42Z" transform="translate(-320.99 -214.34)"/><path class="cls-1" d="M959,343c-4.72,0-8.68-.06-12.64,0-12.64.24-25.3-.68-37.92.64-4.55.48-6.74-.75-6.35-5.9a176.55,176.55,0,0,0,.06-18c-.09-3.28,1-5,4.45-5.09,2.65,0,5.3-.39,8-.4,13,0,26,.05,39-.05,3.91,0,5.72,1.22,5.55,5.49C958.75,327.23,959,334.71,959,343Z" transform="translate(-320.99 -214.34)"/><path class="cls-1" d="M487,343H441.3V312.44C457,321.76,472,330.71,487,339.64,486.88,340.76,488.54,341.91,487,343Z" transform="translate(-320.99 -214.34)"/><path class="cls-2" d="M728.9,528.89c1-5.15,4.14-5.91,9.51-3.18-2.93-8.85-5.17-16.75-8.15-24.36-4.72-12.07-8.21-24.53-12.47-36.74-3.79-10.85-7.27-21.8-10.86-32.71-.57-1.73-1.33-3.44-.95-5.34l3,.44c5.11,15.64,10.16,31.3,15.33,46.92q10.1,30.51,20.33,60.95c0,1.09.41,2.31-.94,3.39-3-1.94-2.28-6-4.62-8.2C733.71,534.42,731.3,534.13,728.9,528.89Z" transform="translate(-320.99 -214.34)"/><path class="cls-1" d="M412,299.91c-2.25-.73-1.63-2.65-1.63-4.19q0-29.36.13-58.72c0-2.29.46-4.58.68-6.7,1.84-1.34,3.82-.67,5.51-1.31.08,17.93.19,35.87.23,53.81,0,5.28,1.33,10.95-4.06,14.82C412.26,298,412.22,299.13,412,299.91Z" transform="translate(-320.99 -214.34)"/><path class="cls-3" d="M836.08,396.57c-4.53-1.83-2.43-5.06-2.72-7.4-.33-2.62-.08-5.31-.08-9.35-3.88,5.8-4.3,12-8.61,17.67l-6.89-17.17-.91.07v5.49a49.69,49.69,0,0,1,0,6c-.19,1.6,1.38,4.41-2.61,4.19V373.38c2.83-1,4.13.08,5.06,2.83,1.61,4.8,3.65,9.45,5.59,14.36,4.71-5.4,3.23-14.21,11.21-18.7Z" transform="translate(-320.99 -214.34)"/><path class="cls-2" d="M677,342.77c-.11-4.76-2.46-8.89-3.79-13.3-2.07-6.84-4.31-13.63-6.62-20.39-1-3-1.65-6-5.89-7.08-3.21-.79-4.49-4.26-3-7.81,1.37-3.32,4.12-4.4,7.33-3.53,3.65,1,5.46,4.32,4,7.37-1.92,4.14-.36,7.38.8,10.93Q675.43,326,681,343.07A4.52,4.52,0,0,1,677,342.77Z" transform="translate(-320.99 -214.34)"/><path class="cls-2" d="M412,299.91c.27-.78.31-1.89.86-2.29,5.39-3.87,4.07-9.54,4.06-14.82,0-17.94-.15-35.88-.23-53.81.42-2.88-.41-5.85,1-9.86,2.08,4.07.75,7.66,1.49,10.85q-.06,30.59-.12,61.16c0,1.9,0,3.76,2.54,4.05,2.24,5,1.52,8.25-2.12,9.55C416.1,305.93,413.13,304,412,299.91Z" transform="translate(-320.99 -214.34)"/><path class="cls-3" d="M754.38,387.19c-.82,8.37-.82,8.37-3.37,8.62V373c3.4,0,6.68-.12,10,0,3.74.17,7.42.69,8.5,5.26,1,4.21-1.43,6.47-5,8.18,2,3,3.83,5.92,5.79,8.94-4,2-4.54-1.57-5.76-3.43C760.78,386.36,760.87,386.3,754.38,387.19Zm-.17-3.27c3.19,0,5.86.16,8.49-.05a3.76,3.76,0,0,0,3.64-4,3.52,3.52,0,0,0-3.66-3.86c-2.76-.15-5.53,0-8.47,0Z" transform="translate(-320.99 -214.34)"/><path class="cls-3" d="M1038.21,386.45l5.86,9.26c-4.22,1.47-5.08-2-6.07-4.15-2-4.41-5.15-5.66-9.72-4.47-.87,2.17-.27,4.51-.39,6.79-.07,1.3-.2,2.33-1.88,2.23-1.39-.09-1.47-1-1.46-2.07,0-6.81,0-13.62,0-21,3.47,0,6.57-.1,9.67,0,3.71.15,7.6.32,8.86,4.82C1044.27,382.08,1042.21,384.84,1038.21,386.45ZM1028,383.94c3,0,5.59.13,8.19,0a3.76,3.76,0,0,0,3.9-4.18c0-2.49-1.53-3.6-3.75-3.72-2.73-.15-5.48,0-8.34,0Z" transform="translate(-320.99 -214.34)"/><path class="cls-3" d="M902.78,373.1v22.61c-2.51,1.18-3.93,0-5.29-2.31a81.52,81.52,0,0,0-10-13.76v15.82c-2.06.92-3.19.83-3.2-1.17,0-7,0-13.92,0-22.13,8.78,4,9.59,13.39,15.5,18.49,1.26-5.83-1.06-11.82,1.27-17.44C901.13,373,902,373.14,902.78,373.1Z" transform="translate(-320.99 -214.34)"/><path class="cls-3" d="M589.89,396.09c-2.93-1.54-3.5-7.73-2.32-22.45,2.38-1.44,3.77-.26,5,1.83,3.07,5,6.26,9.94,10,15.78,1.3-6.7-.53-12.51,1.34-18,.06-.2.92-.12,1.68-.2,1,3.73.36,7.52.45,11.25s0,7.61,0,12.85c-8.23-3.81-9.29-12.37-15.19-17.88C589.39,385.1,590.88,390.68,589.89,396.09Z" transform="translate(-320.99 -214.34)"/><path class="cls-3" d="M385.73,379.74c-1.35,5.66,0,11-.93,16.1-1.95.55-2.64-.19-2.63-1.93,0-6.81,0-13.62,0-20.27,2.94-1.44,4.26,0,5.5,2.07A122.43,122.43,0,0,0,398,390.57c0-3.21-.25-6.46.07-9.64.28-2.66-1.53-6,2.55-8.75v24.44C392.29,393.94,392.17,384.48,385.73,379.74Z" transform="translate(-320.99 -214.34)"/><path class="cls-3" d="M860.6,372.92c6.85,0,11.3,4.71,11.21,11.82s-4.56,11.62-11.5,11.67-11.38-4.52-11.34-11.63C849,377.18,853.22,372.89,860.6,372.92Zm7.68,11.48c-.09-5.57-3-8.76-8-8.79s-8.28,3.77-8.09,9.29c.17,5.21,3.6,9,8.14,8.93C865.33,393.79,868.37,390.18,868.28,384.4Z" transform="translate(-320.99 -214.34)"/><path class="cls-3" d="M657.46,376.36V383h13.22c.05.49.1,1,.16,1.46-3.82,3.1-8.94-.12-13.23,1.9v6.48c4.68,1.79,10-.52,14.74,2.52H654.42V373.53h17.26l.13,1.36C667.52,377.27,662.47,374.91,657.46,376.36Z" transform="translate(-320.99 -214.34)"/><path class="cls-3" d="M963.54,373.27c-1.75,4.11-4.63,2.24-6.71,2.54a52.24,52.24,0,0,1-7.41.08c-.81,2.39-.54,4.46-.2,7.1h12.7l.16,1.51c-3.68,2.85-8.41.23-12.69,1.58-.9,2.14-.43,4.53-.25,7.11,5,1,10.1-.48,14.8,1,0,.47-.05.94-.08,1.41h-18V373.27Z" transform="translate(-320.99 -214.34)"/><path class="cls-3" d="M346.9,384.69c0-7.54,4.31-11.84,11.71-11.78,6.72,0,11,4.44,11.06,11.42.1,7.35-4.46,12.13-11.54,12.09S346.87,391.89,346.9,384.69Zm19.26.58c.23-5.95-2.37-9.34-7.42-9.65s-8.51,3.11-8.64,8.6,3.14,9.39,7.9,9.6S365.94,390.65,366.16,385.27Z" transform="translate(-320.99 -214.34)"/><path class="cls-3" d="M618.84,385.1c-.06-7.74,3.94-12.07,11.27-12.18,7.07-.12,11.39,4.25,11.39,11.51,0,7.48-4.38,12-11.57,12C623.13,396.36,618.9,392.05,618.84,385.1Zm19.24-.11c.13-5.87-2.63-9.23-7.73-9.4-4.89-.16-8.07,3.09-8.28,8.45-.22,5.74,3.13,9.78,8.12,9.79C634.94,393.83,638,390.44,638.08,385Z" transform="translate(-320.99 -214.34)"/><path class="cls-2" d="M560,426.88l-.09,110.88c-2.55.56-1.74-1.66-2.28-2.77q0-51.44.08-102.87c0-1.82.17-3.64.26-5.46Z" transform="translate(-320.99 -214.34)"/><path class="cls-3" d="M552.71,391.67c.83-6.88-.48-12.69.91-18.35,0-.21,1.19-.17,2.12-.28v22.6c-2.61,1.35-4,0-5.38-2.23-3.07-5.05-6.29-10-10.09-16v18.29c-2.09.72-3.15.45-3.14-1.72,0-6.8,0-13.59,0-20.23,2.91-1.52,4.22-.14,5.48,1.93C545.7,380.73,548.94,385.71,552.71,391.67Z" transform="translate(-320.99 -214.34)"/><path class="cls-3" d="M488.74,382.87c2.36-3.54-1.13-7.85,3.86-10.57v23.51c-4.07,1.05-2.69-2.1-2.85-3.83-.18-1.94,0-3.9,0-6.11H477.5v9.77c-4.41,1.3-3.38-1.71-3.42-3.54-.35-18.36-.33-18.36,3.18-18.68v8.83c2.16,1.1,4.17.5,6.09.6S487.31,382.87,488.74,382.87Z" transform="translate(-320.99 -214.34)"/><path class="cls-3" d="M993.44,377.45c-1.69,1.54-2.64,1.19-3.62-.17a5.41,5.41,0,0,0-4.39-2c-2.57-.11-5.48.1-6,3.14-.42,2.63,2.11,3.39,4.28,3.95A63.12,63.12,0,0,1,990,384.1c2.73,1,4.37,2.84,4.19,6s-2.08,4.8-4.76,5.69c-6,2-11.59,0-13.93-4.79,1.37-1.46,2.35-1.12,3.51.44,2.08,2.8,5.18,2.75,8.19,2.23,1.79-.32,3.59-1.07,3.81-3.34s-1.45-3.25-3.23-3.82c-2.21-.71-4.54-1-6.73-1.79-2.84-1-5.16-2.81-4.85-6.14s2.78-5.29,6.07-5.54C986.51,372.74,991,372.15,993.44,377.45Z" transform="translate(-320.99 -214.34)"/><path class="cls-3" d="M780.79,395.6c2.8-6.87,5.57-13.71,8.36-20.54.45-1.1,1-2,2.45-2.06,1.65,0,2.25.84,2.8,2.22,2.66,6.75,5.41,13.47,8.14,20.21-3.12,1.82-3.87-.49-4.19-2.28-.76-4.28-3.87-3.72-6.81-3.75s-5.65-.24-6.45,3.6C784.69,394.91,784,397,780.79,395.6Zm15.09-8.78-4.28-10.58c-1.45,3.93-2.62,7.11-3.91,10.58Z" transform="translate(-320.99 -214.34)"/><path class="cls-3" d="M434.09,395.61c-3.33,1.34-3.82-.89-4.28-2.77-1.11-4.47-4.64-3.16-7.6-3.42-2.78-.24-4.77.21-5.54,3.42-.4,1.68-.85,4.29-4.36,2.72,2.83-6.93,5.69-13.86,8.48-20.83a2.49,2.49,0,0,1,2.65-1.7c1.81,0,2.12,1.28,2.61,2.49Zm-6.76-8.8-3.9-10.1a34.54,34.54,0,0,0-4,10.1Z" transform="translate(-320.99 -214.34)"/><path class="cls-3" d="M504.15,395.66c2.72-6.75,5.41-13.47,8.17-20.15.47-1.14.75-2.49,2.6-2.52,2,0,2.51,1.22,3.07,2.63q4,9.93,7.93,19.9c-2.78,1.56-3.72-.24-4.15-2.31-.84-4-3.74-3.86-6.84-3.81-2.9.05-5.69-.26-6.46,3.64C508.08,395.06,507.12,396.91,504.15,395.66Zm11-19.58c-1.62,4.23-2.82,7.36-4.09,10.66h8.07C517.85,383.36,516.71,380.29,515.13,376.08Z" transform="translate(-320.99 -214.34)"/><path class="cls-3" d="M721.73,373.65c-2.79,6.83-5.59,13.66-8.35,20.5-.46,1.14-.88,2-2.37,2-1.82.09-2.24-1.13-2.73-2.32-2.74-6.72-5.45-13.45-8.19-20.26,3.22-.13,3.22-.13,6.28,7.49,1.34,3.31,2.71,6.61,4.24,10.36,4.69-5.8,4-14.09,9.58-18.64Z" transform="translate(-320.99 -214.34)"/><path class="cls-4" d="M441.58,228h-4.15c-4.46-.82-5.49-4.38-4.93-7.82.6-3.72,3.81-5.9,7.59-5.87s6.09,2.53,6.71,6.15C447.47,224.5,445.73,227.19,441.58,228Z" transform="translate(-320.99 -214.34)"/><path class="cls-3" d="M451.17,376.43c-2.89-1.36-5.9.81-8.48-2.71h19.76c-1.41,4.1-5.3.92-8,3.08,0,5,0,10.56,0,16.14,0,1.16.65,3-1.41,3.1-2.47.17-1.85-1.84-1.86-3.19C451.13,387.39,451.17,381.92,451.17,376.43Z" transform="translate(-320.99 -214.34)"/><path class="cls-3" d="M334.22,372.86c0,6.2.12,11.81-.05,17.42-.1,3.64-2.16,5.81-5.9,6-4,.22-6.67-1.31-7.28-5.55,1.75-1.35,2.66-.78,3.51.91s2.22,2.64,4.07,2,2.56-2.44,2.55-4.4V377.19c-.61-2.44-4.6.18-4.05-3.64C329.27,372.38,331.67,373.48,334.22,372.86Z" transform="translate(-320.99 -214.34)"/><path class="cls-3" d="M922.8,376.54c-2.86-1.53-6.15.78-8.43-3h19.85c-1.82,4.13-5.46,1.28-8.17,2.88V396.7c-5.41-2.35-2.71-6.45-3.13-9.31C922.4,383.81,922.8,380.1,922.8,376.54Z" transform="translate(-320.99 -214.34)"/><path class="cls-2" d="M489.71,426.6v59c-2.08-.17-1.81-1.4-1.81-2.27q-.06-27.43,0-54.87a9.59,9.59,0,0,1,.41-1.94Z" transform="translate(-320.99 -214.34)"/><path class="cls-2" d="M558,343.4c-.94-18.12-.29-36.26-.42-54.39a2.9,2.9,0,0,1,2.45-3.32V343.1Z" transform="translate(-320.99 -214.34)"/><path class="cls-3" d="M736.78,395.69c-3,.92-3.44-.31-3.41-2.39.09-5.64,0-11.29.07-16.93,0-1.33-.63-3.37,1.82-3.25,2,.1,1.49,1.87,1.5,3.07C736.8,382.64,736.78,389.09,736.78,395.69Z" transform="translate(-320.99 -214.34)"/><path class="cls-3" d="M488.15,337a46.45,46.45,0,0,1,.44-14.83c1.44,4.73,1,9.53.79,14.32Z" transform="translate(-320.99 -214.34)"/><path class="cls-4" d="M488.15,337l1.23-.51c.43,2.32.81,4.66,2.24,6.71-1.8.94-3.26,1.15-4.65-.15,1.57-1.1-.09-2.25.07-3.37C487.26,338.69,487.07,337.56,488.15,337Z" transform="translate(-320.99 -214.34)"/></svg>