<svg id="Layer_1" data-name="Layer 1" xmlns="http://www.w3.org/2000/svg" viewBox="0 0 723.08 335.9"><defs><style>.cls-1{fill:#73a0be;}.cls-2{fill:#0f293f;}.cls-3{fill:#fff;}.cls-4{fill:#a7a6a8;}.cls-5{fill:#1b1b1b;}</style></defs><path class="cls-1" d="M98.14,15.66c4.24-1.06,8.55-.34,12.82-.59,1.89-.11,4,.61,5.48-1.36h4.15c1.82,2.17,4.33,1.34,6.55,1.35,34.66,0,69.31.12,104-.06,5.31,0,9.7,1,13.51,4.87,3.34,3.42,7.12,6.41,10.7,9.59,1.55,1.38,1.48,3.2,1.49,5.07.08,30.15-.09,60.29-.79,90.43-.08,3.49-1.17,4.86-4.64,4.49-4.11-.45-8.3.66-12.36-.67V71.35a2.91,2.91,0,0,0-2.46,3.29v0c.13,18.13-.52,36.27.42,54.39l-43.91.33c-2,0-3.19-.7-3.07-2.89a12.51,12.51,0,0,1,0-1.5c2.5-11.31-3-17.83-12.33-23.46-15.17-9.15-29.69-19.4-44.43-29.25-8.15-5.45-16.19-11-24.3-16.55-2.06-1.4-4.29-3.24-6.81-1.81-2.23,1.26-1.17,3.92-1.23,6-.2,7-.24,14-.34,21C98,80.56,98,78.66,98,76.8Q98.1,46.22,98.14,15.66Z" transform="translate(0 0.03)"/><path class="cls-1" d="M454,129c15.4-38.41,30.37-75.76,45.45-113.36,2.45-.86,5.28-.83,8.09-.83H606A12.19,12.19,0,0,1,615,18c6.48,6,13.25,11.63,20,17.32a8.13,8.13,0,0,1,3.1,6.92c-.16,10.66-.23,21.32,0,32,.08,4-1.62,5.31-5.31,5.29H585.32c-1,0-2.59,0-2.81-.5-2.37-5.31-7-3.35-10.83-3.38-18.32-.17-36.65,0-55-.17-3.69,0-5.92,1.09-7.26,4.58-2.56,6.63-6.17,12.84-8.18,19.71,1.73,1.6,3.66,1,5.38,1,15.16.07,30.32.18,45.48,0,4-.06,5,1.44,5.35,5.11.88,8.31-2.57,15.36-6.45,22-1.54,2.64-4.84,6.33-9.53,2.85-1.24-.92-3.53-.56-5.34-.56q-38.24-.06-76.47-.06C457.37,130,454.81,130.72,454,129Z" transform="translate(0 0.03)"/><path class="cls-1" d="M356,128.43c-3.52,2.45-7.41.87-11.1.88-26.15.11-52.3-.07-78.44.21-5.07,0-6.38-1.26-6.33-6.34.22-27.48,0-55,0-82.43,0-1.79-.48-3.66,1.11-6.41l42.06,37.94c2.5-3.91-.14-6.14-1.77-7.87-10-10.62-17.76-23-26.9-34.28-3.61-4.47-7.31-8.87-11.09-13.44,3.37-2.85,6.69-1.81,9.62-1.65,20.64,1.11,41.28.27,61.92.63h2.5c12.59,0,12.35.07,16,12.28,6.18,20.68,12.72,41.25,19.07,61.88,3.95,12.82,7.83,25.65,12,39.23-8.66.29-16.64.94-24.65-.32q-5.56-17.09-11.12-34.08c-1.16-3.55-2.72-6.79-.8-10.93,1.42-3-.39-6.37-4-7.37-3.21-.87-6,.21-7.33,3.53-1.47,3.55-.19,7,3,7.81,4.24,1,4.85,4.07,5.89,7.08,2.31,6.76,4.55,13.55,6.62,20.39C353.58,119.54,355.93,123.66,356,128.43Z" transform="translate(0 0.03)"/><path class="cls-1" d="M168.72,212.26a89.15,89.15,0,0,1,15.5.06c0,14.47,0,28.42.06,42.37,0,1.78-.9,2.74-2,3.79-2.83,2.82-5.64,5.66-8.52,8.43-2.4,2.31-5.14,4.3-2.33,8.25,1.06,1.49-.17,3.3-1.44,4.41-1.71,1.49-3.85,2.37-5.93.92-2.53-1.77-4.09-.72-6,1.06q-25.74,23.94-51.59,47.76c-3.59,3.33-11.23,4.92-15.16,2.08-13.46-9.73-27.1-19.22-39.92-29.81a9.67,9.67,0,0,1-1.31-1.74c2.33-4,6-6.62,9.24-9.64q27.29-25.59,54.79-51c3.73-3.43,5.71-7.06,5.23-12.19-.33-3.63.06-7.32-.09-11-.13-3,1-4.15,4.06-4.11,14.65.16,29.3.17,44,.23a9.85,9.85,0,0,0-.41,1.94v54.87c0,.87-.27,2.1,1.81,2.27Z" transform="translate(0 0.03)"/><path class="cls-1" d="M591.91,213.23c-5.26,6.47-10.38,13.17-16,19.46-2.76,3.1-2.91,5.8-1.43,9.44q15.4,37.94,30.56,76a28.09,28.09,0,0,1,1.92,5.65c1.68,9.61.5,11-9,11-15.17,0-30.33-.15-45.49.07-4.22.06-6.33-1.15-8.18-5.22q-20.52-45-41.74-89.61c-2-4.28-2.4-7.39,1.17-11.08A154,154,0,0,0,515,215a7.28,7.28,0,0,1,6.36-3.13q33.74.12,67.48.1A3,3,0,0,1,591.91,213.23Z" transform="translate(0 0.03)"/><path class="cls-1" d="M388,212.66c4.44-2.95,9.38-1.1,14.07-1.3,8.06-.33,8-.08,10.73,7.47.56,1.56.34,4.2,2.85,4,2.2-.14,2.34-2.48,2.85-4.19,2-6.75,2.85-7.42,9.57-7.42h66.34a41.63,41.63,0,0,1,9.69,1.23c-3.93,7.1-7.71,13.82-11.39,20.58-8,14.73-19.86,26.56-30.05,39.63-12.65,16.23-26,31.93-39,47.86q-10.17-30.47-20.33-60.95C398.18,244,393.13,228.3,388,212.66Z" transform="translate(0 0.03)"/><path class="cls-1" d="M407.91,314.55c-1.67-.44-3-.51-4.32,1.21-4.17,5.28-8.59,10.36-13,15.42-2.64,3-13.21,5-16.67,3.12-2.63-1.43-2.68-4.46-3.46-6.92-3.45-10.72-6.65-21.46-9.95-32.19q-5.7-18.53-11.41-37-6.44-21-12.8-42.06c-.33-1.08-.55-2.2-.8-3.24a7.7,7.7,0,0,1,5.36-1.55q20.47-.06,40.95,0c1.13,0,2.37-.2,3.18.95-.38,1.9.38,3.61.95,5.34,3.59,10.91,7.07,21.86,10.86,32.71,4.26,12.21,7.75,24.67,12.47,36.74,3,7.61,5.22,15.51,8.15,24.36C412,308.66,408.94,309.4,407.91,314.55Z" transform="translate(0 0.03)"/><path class="cls-1" d="M236.64,320.66c-15.1-12.7-29.84-25.82-44.43-39.1a6.39,6.39,0,0,1-2.26-5.21Q190,246.16,190,216c0-2.25.34-4,3.11-4,14.62.19,29.24-.52,43.85.38-.09,1.82-.26,3.64-.26,5.46Q236.66,269.22,236.64,320.66Z" transform="translate(0 0.03)"/><path class="cls-1" d="M304.61,287.84c-4.84-3.27-7.83-8-11.58-11.87-10.26-10.62-20.2-21.55-30.35-32.28a8.17,8.17,0,0,1-2.57-6.17c.13-7,.26-14,0-21-.12-3.91,1.55-5,5.08-4.66,8.06.65,16.3.78,24.23.63,9-.18,18.11.14,27.13-.65,3.95-.35,5.33,1.16,5.18,5.09-.26,6.48-.32,13,0,19.46.2,4.21-1.35,7-4.85,9-5,2.91-10,5.93-15.07,8.8-3.14,1.78-4.34,3.75-3,7.62,2.37,6.72,4,13.68,6,20.56C305.25,284,306.3,285.52,304.61,287.84Z" transform="translate(0 0.03)"/><path class="cls-1" d="M239,212.54c4.58-1.3,9.25-.46,13.88-.57,3.29-.08,2.92,2.51,2.93,4.66q.06,19,.09,38v75.45c0,1.77.36,3.63-1,5.79-6.53-2.82-10.26-9-16-12.42Z" transform="translate(0 0.03)"/><path class="cls-1" d="M638,128.66c-4.72,0-8.68-.06-12.64,0-12.64.24-25.3-.68-37.92.64-4.55.48-6.74-.75-6.35-5.9a174.31,174.31,0,0,0,.06-18c-.09-3.28,1-5,4.45-5.09,2.65,0,5.3-.39,8-.4,13,0,26,0,39,0,3.91,0,5.72,1.22,5.55,5.49C637.76,112.89,638,120.37,638,128.66Z" transform="translate(0 0.03)"/><path class="cls-1" d="M166,128.66h-45.7V98.1c15.7,9.32,30.7,18.27,45.7,27.2C165.89,126.42,167.55,127.57,166,128.66Z" transform="translate(0 0.03)"/><path class="cls-2" d="M407.91,314.55c1-5.15,4.14-5.91,9.51-3.18-2.93-8.85-5.17-16.75-8.15-24.36-4.72-12.07-8.21-24.53-12.47-36.74-3.79-10.85-7.27-21.8-10.86-32.71-.57-1.73-1.33-3.44-.95-5.34l3,.44c5.11,15.64,10.16,31.3,15.33,46.92q10.1,30.51,20.33,60.95c0,1.09.41,2.31-.94,3.39-3-1.94-2.28-6-4.62-8.2C412.72,320.08,410.31,319.79,407.91,314.55Z" transform="translate(0 0.03)"/><path class="cls-1" d="M91,85.57c-2.25-.73-1.63-2.65-1.63-4.19q0-29.35.13-58.72a64.07,64.07,0,0,1,.68-6.7C92,14.62,94,15.29,95.7,14.65c.08,17.93.19,35.87.23,53.81,0,5.28,1.33,11-4.06,14.82C91.27,83.66,91.23,84.79,91,85.57Z" transform="translate(0 0.03)"/><path class="cls-3" d="M515.09,182.23c-4.53-1.83-2.43-5.06-2.72-7.4-.33-2.62-.08-5.31-.08-9.35-3.88,5.8-4.3,12-8.61,17.67L496.79,166l-.91.07v5.49a50,50,0,0,1,0,6c-.19,1.6,1.38,4.41-2.61,4.19V159c2.83-1,4.13.08,5.06,2.83,1.61,4.8,3.65,9.45,5.59,14.36,4.71-5.4,3.23-14.21,11.21-18.7Z" transform="translate(0 0.03)"/><path class="cls-2" d="M356,128.43c-.11-4.76-2.46-8.89-3.79-13.3-2.07-6.84-4.31-13.63-6.62-20.39-1-3-1.65-6-5.89-7.08-3.21-.79-4.49-4.26-3-7.81,1.37-3.32,4.12-4.4,7.33-3.53,3.65,1,5.46,4.32,4,7.37-1.92,4.14-.36,7.38.8,10.93q5.6,17,11.17,34.11A4.51,4.51,0,0,1,356,128.43Z" transform="translate(0 0.03)"/><path class="cls-2" d="M91,85.57c.27-.78.31-1.89.86-2.29,5.39-3.87,4.07-9.54,4.06-14.82,0-17.94-.15-35.88-.23-53.81.42-2.88-.41-5.85,1-9.86,2.08,4.07.75,7.66,1.49,10.85L98.07,76.8c0,1.9,0,3.76,2.54,4,2.24,5,1.52,8.25-2.12,9.55C95.11,91.59,92.14,89.66,91,85.57Z" transform="translate(0 0.03)"/><path class="cls-3" d="M433.39,172.85c-.82,8.37-.82,8.37-3.37,8.62V158.66c3.4,0,6.68-.12,10,0,3.74.17,7.42.69,8.5,5.26,1,4.21-1.43,6.47-5,8.18,2,3,3.83,5.92,5.79,8.94-4,2-4.54-1.57-5.76-3.43C439.79,172,439.88,172,433.39,172.85Zm-.17-3.27c3.19,0,5.86.16,8.49-.05a3.76,3.76,0,0,0,3.65-3.87.57.57,0,0,1,0-.13,3.52,3.52,0,0,0-3.16-3.85,4.17,4.17,0,0,0-.5,0c-2.76-.15-5.53,0-8.47,0Z" transform="translate(0 0.03)"/><path class="cls-3" d="M717.22,172.11l5.86,9.26c-4.22,1.47-5.08-2-6.07-4.15-2-4.41-5.15-5.66-9.72-4.47-.87,2.17-.27,4.51-.39,6.79-.07,1.3-.2,2.33-1.88,2.23-1.39-.09-1.47-1-1.46-2.07v-21c3.47,0,6.57-.1,9.67,0,3.71.15,7.6.32,8.86,4.82C723.28,167.74,721.22,170.5,717.22,172.11ZM707,169.6c3,0,5.59.13,8.19,0a3.76,3.76,0,0,0,3.92-3.59,3.88,3.88,0,0,0,0-.59c0-2.49-1.53-3.6-3.75-3.72-2.73-.15-5.48,0-8.34,0Z" transform="translate(0 0.03)"/><path class="cls-3" d="M581.79,158.76v22.61c-2.51,1.18-3.93,0-5.29-2.31a81.8,81.8,0,0,0-10-13.76v15.82c-2.06.92-3.19.83-3.2-1.17V157.82c8.78,4,9.59,13.39,15.5,18.49,1.26-5.83-1.06-11.82,1.27-17.44C580.14,158.66,581,158.8,581.79,158.76Z" transform="translate(0 0.03)"/><path class="cls-3" d="M268.9,181.75c-2.93-1.54-3.5-7.73-2.32-22.45,2.38-1.44,3.77-.26,5,1.83,3.07,5,6.26,9.94,10,15.78,1.3-6.7-.53-12.51,1.34-18,.06-.2.92-.12,1.68-.2,1,3.73.36,7.52.45,11.25s0,7.61,0,12.85c-8.23-3.81-9.29-12.37-15.19-17.88C268.4,170.76,269.89,176.34,268.9,181.75Z" transform="translate(0 0.03)"/><path class="cls-3" d="M64.74,165.4c-1.35,5.66,0,11-.93,16.1-2,.55-2.64-.19-2.63-1.93V159.3c2.94-1.44,4.26,0,5.5,2.07A121.65,121.65,0,0,0,77,176.23c0-3.21-.25-6.46.07-9.64.28-2.66-1.53-6,2.55-8.75v24.44C71.3,179.6,71.18,170.14,64.74,165.4Z" transform="translate(0 0.03)"/><path class="cls-3" d="M539.61,158.58c6.85,0,11.3,4.71,11.21,11.82s-4.56,11.62-11.5,11.67-11.38-4.52-11.34-11.63C528,162.84,532.23,158.55,539.61,158.58Zm7.68,11.48c-.09-5.57-3-8.76-8-8.79S531,165,531.2,170.56c.17,5.21,3.6,9,8.14,8.93,5,0,8-3.65,7.95-9.43Z" transform="translate(0 0.03)"/><path class="cls-3" d="M336.47,162v6.64h13.22c.05.49.1,1,.16,1.46-3.82,3.1-8.94-.12-13.23,1.9v6.48c4.68,1.79,10-.52,14.74,2.52H333.43V159.19h17.26l.13,1.36C346.53,162.93,341.48,160.57,336.47,162Z" transform="translate(0 0.03)"/><path class="cls-3" d="M642.55,158.93c-1.75,4.11-4.63,2.24-6.71,2.54a52.35,52.35,0,0,1-7.41.08c-.81,2.39-.54,4.46-.2,7.1h12.7l.16,1.51c-3.68,2.85-8.41.23-12.69,1.58-.9,2.14-.43,4.53-.25,7.11,5,1,10.1-.48,14.8,1,0,.47-.05.94-.08,1.41h-18V158.93Z" transform="translate(0 0.03)"/><path class="cls-3" d="M25.91,170.35c0-7.54,4.31-11.84,11.71-11.78,6.72,0,11,4.44,11.06,11.42.1,7.35-4.46,12.13-11.54,12.09S25.88,177.55,25.91,170.35Zm19.26.58c.23-6-2.37-9.34-7.42-9.65s-8.51,3.11-8.64,8.6,3.14,9.39,7.9,9.6S45,176.31,45.17,170.93Z" transform="translate(0 0.03)"/><path class="cls-3" d="M297.85,170.76c-.06-7.74,3.94-12.07,11.27-12.18,7.07-.12,11.39,4.25,11.39,11.51,0,7.48-4.38,12-11.57,12C302.14,182,297.91,177.71,297.85,170.76Zm19.24-.11c.13-5.87-2.63-9.23-7.73-9.4-4.89-.16-8.07,3.09-8.28,8.45-.22,5.74,3.13,9.78,8.12,9.79,4.75,0,7.81-3.39,7.89-8.83Z" transform="translate(0 0.03)"/><path class="cls-2" d="M239,212.54l-.09,110.88c-2.55.56-1.74-1.66-2.28-2.77q0-51.43.08-102.87c0-1.82.17-3.64.26-5.46Z" transform="translate(0 0.03)"/><path class="cls-3" d="M231.72,177.33c.83-6.88-.48-12.69.91-18.35,0-.21,1.19-.17,2.12-.28v22.6c-2.61,1.35-4,0-5.38-2.23-3.07-5-6.29-10-10.09-16v18.29c-2.09.72-3.15.45-3.14-1.72V159.41c2.91-1.52,4.22-.14,5.48,1.93C224.71,166.39,228,171.37,231.72,177.33Z" transform="translate(0 0.03)"/><path class="cls-3" d="M167.75,168.53c2.36-3.54-1.13-7.85,3.86-10.57v23.51c-4.07,1.05-2.69-2.1-2.85-3.83-.18-1.94,0-3.9,0-6.11H156.51v9.77c-4.41,1.3-3.38-1.71-3.42-3.54-.35-18.36-.33-18.36,3.18-18.68v8.83c2.16,1.1,4.17.5,6.09.6S166.32,168.53,167.75,168.53Z" transform="translate(0 0.03)"/><path class="cls-3" d="M672.45,163.11c-1.69,1.54-2.64,1.19-3.62-.17a5.4,5.4,0,0,0-4.39-2c-2.57-.11-5.48.1-6,3.14-.42,2.63,2.11,3.39,4.28,3.95a65,65,0,0,1,6.29,1.73c2.73,1,4.37,2.84,4.19,6s-2.08,4.8-4.76,5.69c-6,2-11.59,0-13.93-4.79,1.37-1.46,2.35-1.12,3.51.44,2.08,2.8,5.18,2.75,8.19,2.23C668,179,669.8,178.26,670,176s-1.45-3.25-3.23-3.82c-2.21-.71-4.54-1-6.73-1.79-2.84-1-5.16-2.81-4.85-6.14s2.78-5.29,6.07-5.54C665.52,158.4,670,157.81,672.45,163.11Z" transform="translate(0 0.03)"/><path class="cls-3" d="M459.8,181.26c2.8-6.87,5.57-13.71,8.36-20.54.45-1.1,1-2,2.45-2.06,1.65,0,2.25.84,2.8,2.22,2.66,6.75,5.41,13.47,8.14,20.21-3.12,1.82-3.87-.49-4.19-2.28-.76-4.28-3.87-3.72-6.81-3.75s-5.65-.24-6.45,3.6C463.7,180.57,463,182.66,459.8,181.26Zm15.09-8.78-4.28-10.58c-1.45,3.93-2.62,7.11-3.91,10.58Z" transform="translate(0 0.03)"/><path class="cls-3" d="M113.1,181.27c-3.33,1.34-3.82-.89-4.28-2.77-1.11-4.47-4.64-3.16-7.6-3.42-2.78-.24-4.77.21-5.54,3.42-.4,1.68-.85,4.29-4.36,2.72,2.83-6.93,5.69-13.86,8.48-20.83a2.5,2.5,0,0,1,2.65-1.7c1.81,0,2.12,1.28,2.61,2.49Zm-6.76-8.8-3.9-10.1a34.33,34.33,0,0,0-4,10.1Z" transform="translate(0 0.03)"/><path class="cls-3" d="M183.16,181.32c2.72-6.75,5.41-13.47,8.17-20.15.47-1.14.75-2.49,2.6-2.52,2,0,2.51,1.22,3.07,2.63q4,9.93,7.93,19.9c-2.78,1.56-3.72-.24-4.15-2.31-.84-4-3.74-3.86-6.84-3.81-2.9.05-5.69-.26-6.46,3.64C187.09,180.72,186.13,182.57,183.16,181.32Zm11-19.58c-1.62,4.23-2.82,7.36-4.09,10.66h8.07c-1.28-3.38-2.42-6.45-4-10.66Z" transform="translate(0 0.03)"/><path class="cls-3" d="M400.74,159.31c-2.79,6.83-5.59,13.66-8.35,20.5-.46,1.14-.88,2-2.37,2-1.82.09-2.24-1.13-2.73-2.32-2.74-6.72-5.45-13.45-8.19-20.26,3.22-.13,3.22-.13,6.28,7.49,1.34,3.31,2.71,6.61,4.24,10.36,4.69-5.8,4-14.09,9.58-18.64Z" transform="translate(0 0.03)"/><path class="cls-4" d="M120.59,13.66h-4.15c-4.46-.82-5.49-4.38-4.93-7.82.6-3.72,3.81-5.9,7.59-5.87s6.09,2.53,6.71,6.15C126.48,10.16,124.74,12.85,120.59,13.66Z" transform="translate(0 0.03)"/><path class="cls-3" d="M130.18,162.09c-2.89-1.36-5.9.81-8.48-2.71h19.76c-1.41,4.1-5.3.92-8,3.08V178.6c0,1.16.65,3-1.41,3.1-2.47.17-1.85-1.84-1.86-3.19C130.14,173.05,130.18,167.58,130.18,162.09Z" transform="translate(0 0.03)"/><path class="cls-3" d="M13.23,158.52c0,6.2.12,11.81-.05,17.42-.1,3.64-2.16,5.81-5.9,6-4,.22-6.67-1.31-7.28-5.55,1.75-1.35,2.66-.78,3.51.91s2.22,2.64,4.07,2,2.56-2.44,2.55-4.4V162.85c-.61-2.44-4.6.18-4.05-3.64C8.28,158,10.68,159.14,13.23,158.52Z" transform="translate(0 0.03)"/><path class="cls-3" d="M601.81,162.2c-2.86-1.53-6.15.78-8.43-3h19.85c-1.82,4.13-5.46,1.28-8.17,2.88v20.28c-5.41-2.35-2.71-6.45-3.13-9.31C601.41,169.47,601.81,165.76,601.81,162.2Z" transform="translate(0 0.03)"/><path class="cls-2" d="M168.72,212.26v59c-2.08-.17-1.81-1.4-1.81-2.27q-.06-27.44,0-54.87a9.85,9.85,0,0,1,.41-1.94Z" transform="translate(0 0.03)"/><path class="cls-2" d="M237,129.06c-.94-18.12-.29-36.26-.42-54.39A2.89,2.89,0,0,1,239,71.36h0v57.41Z" transform="translate(0 0.03)"/><path class="cls-3" d="M415.79,181.35c-3,.92-3.44-.31-3.41-2.39.09-5.64,0-11.29.07-16.93,0-1.33-.63-3.37,1.82-3.25,2,.1,1.49,1.87,1.5,3.07C415.81,168.3,415.79,174.75,415.79,181.35Z" transform="translate(0 0.03)"/><path class="cls-5" d="M167.16,122.66a46.43,46.43,0,0,1,.44-14.83c1.44,4.73,1,9.53.79,14.32Z" transform="translate(0 0.03)"/><path class="cls-4" d="M167.16,122.66l1.23-.51c.43,2.32.81,4.66,2.24,6.71-1.8.94-3.26,1.15-4.65-.15,1.57-1.1-.09-2.25.07-3.37S166.08,123.22,167.16,122.66Z" transform="translate(0 0.03)"/></svg>