<svg id="Layer_1" data-name="Layer 1" xmlns="http://www.w3.org/2000/svg" viewBox="0 0 1600 1600"><defs><style>.cls-1{fill:#709fbe;}.cls-2{fill:#709fbb;}.cls-3{fill:#f5fdfd;}.cls-4{fill:#f5fcfd;}.cls-5{fill:#fefdf8;}.cls-6{fill:#82a9be;}.cls-7{fill:#0a1922;}.cls-8{fill:#f7fefe;}.cls-9{fill:#87a8b8;}.cls-10{fill:#a4a3a3;}.cls-11{fill:#898888;}.cls-12{fill:#82a6b8;}.cls-13{fill:#8eacbc;}.cls-14{fill:#80a8b9;}.cls-15{fill:#87a8bb;}.cls-16{fill:#1c2d3c;}.cls-17{fill:#818283;}.cls-18{fill:#88a8ba;}.cls-19{fill:#4e565d;}.cls-20{fill:#84a5b7;}.cls-21{fill:#102232;}.cls-22{fill:#86a8ba;}.cls-23{fill:#86aabc;}.cls-24{fill:#89a9bb;}.cls-25{fill:#83a8bc;}.cls-26{fill:#f0fbfc;}.cls-27{fill:#88a8b9;}.cls-28{fill:#85a9bb;}.cls-29{fill:#88a6b6;}.cls-30{fill:#ebf9fb;}.cls-31{fill:#eefafc;}.cls-32{fill:#edfafb;}.cls-33{fill:#ecfafc;}.cls-34{fill:#8ba9b9;}.cls-35{fill:#ecf9fa;}.cls-36{fill:#edf9fb;}.cls-37{fill:#effafc;}.cls-38{fill:#ebf8fb;}.cls-39{fill:#6fa0c2;}.cls-40{fill:#01172d;}.cls-41{fill:#6ba3c2;}.cls-42{fill:#81a6bb;}.cls-43{fill:#8ba8ba;}.cls-44{fill:#44718c;}.cls-45{fill:#81a7ba;}.cls-46{fill:#7ea4ba;}.cls-47{fill:#80878d;}.cls-48{fill:#82a8bb;}.cls-49{fill:#83a7bb;}.cls-50{fill:#85a9bc;}.cls-51{fill:#81a5b9;}.cls-52{fill:#779aab;}.cls-53{fill:#85a8bc;}.cls-54{fill:#7ba8bf;}.cls-55{fill:#84a7b9;}.cls-56{fill:#84a5b6;}.cls-57{fill:#3f6c89;}.cls-58{fill:#769cb4;}.cls-59{fill:#798995;}.cls-60{fill:#7a8994;}.cls-61{fill:#7d888f;}.cls-62{fill:#87a7ba;}.cls-63{fill:#878583;}.cls-64{fill:#7a95a5;}.cls-65{fill:#7a9cb2;}.cls-66{fill:#7494aa;}.cls-67{fill:#e3f3f9;}.cls-68{fill:#7a9bb1;}.cls-69{fill:#8ba8b8;}.cls-70{fill:#8ea9ba;}.cls-71{fill:#86a8b8;}.cls-72{fill:#5a8096;}.cls-73{fill:#d3eef4;}.cls-74{fill:#a9c4db;}.cls-75{fill:#475561;}.cls-76{fill:#06172a;}.cls-77{fill:#83a5b5;}.cls-78{fill:#88a7b8;}.cls-79{fill:#81a6b5;}.cls-80{fill:#02182c;}.cls-81{fill:#88a8b3;}.cls-82{fill:#87aabb;}.cls-83{fill:#e8fbfd;}.cls-84{fill:#eff9fa;}.cls-85{fill:#7b9fb5;}.cls-86{fill:#81a9bb;}.cls-87{fill:#8aa9ba;}.cls-88{fill:#82aabd;}.cls-89{fill:#89aabf;}.cls-90{fill:#83a9ba;}.cls-91{fill:#85a5b9;}.cls-92{fill:#6fa1bf;}.cls-93{fill:#84a8b8;}.cls-94{fill:#86a8b9;}.cls-95{fill:#8ba8b7;}.cls-96{fill:#8aa8b9;}.cls-97{fill:#8aa8b8;}.cls-98{fill:#8bb4d1;}.cls-99{fill:#8ca7b7;}.cls-100{fill:#82a8b8;}.cls-101{fill:#89a8b7;}.cls-102{fill:#eef9fb;}.cls-103{fill:#83a7b9;}.cls-104{fill:#85a7ba;}.cls-105{fill:#8aaabb;}.cls-106{fill:#89abbc;}.cls-107{fill:#ecf9fb;}.cls-108{fill:#e7f7f8;}.cls-109{fill:#f3fbfc;}.cls-110{fill:#f0fafc;}.cls-111{fill:#79a3bc;}.cls-112{fill:#e7f5f8;}.cls-113{fill:#82a8be;}.cls-114{fill:#89aabd;}.cls-115{fill:#88afbe;}.cls-116{fill:#82a9bb;}.cls-117{fill:#eaf8fa;}.cls-118{fill:#8db7d2;}.cls-119{fill:#97c0d3;}.cls-120{fill:#88b7ce;}.cls-121{fill:#7fa8bd;}.cls-122{fill:#90a7b2;}.cls-123{fill:#8fb8d4;}.cls-124{fill:#91b1be;}.cls-125{fill:#f4fafb;}.cls-126{fill:#7b848d;}.cls-127{fill:#051016;}.cls-128{fill:#122b3b;}.cls-129{fill:#8fb8d5;}.cls-130{fill:#142e3d;}.cls-131{fill:#96bcd3;}.cls-132{fill:#8ca5b2;}.cls-133{fill:#9bbbcf;}.cls-134{fill:#496275;}.cls-135{fill:#729ab4;}.cls-136{fill:#709ab2;}.cls-137{fill:#729bb2;}.cls-138{fill:#729bb4;}.cls-139{fill:#749cb4;}.cls-140{fill:#739cb7;}.cls-141{fill:#739fad;}.cls-142{fill:#7597ac;}.cls-143{fill:#d9f1f7;}.cls-144{fill:#91bbd1;}.cls-145{fill:#436b83;}.cls-146{fill:#8fb1c8;}.cls-147{fill:#858487;}.cls-148{fill:#6da0c3;}.cls-149{fill:#031b2a;}.cls-150{fill:#759eb9;}.cls-151{fill:#81868b;}.cls-152{fill:#7e94a6;}.cls-153{fill:#7e98ac;}.cls-154{fill:#e5f7fa;}.cls-155{fill:#86807f;}.cls-156{fill:#88b5d1;}.cls-157{fill:none;}</style></defs><path class="cls-1" d="M146,190.91a6.17,6.17,0,0,0,.95.2,3.39,3.39,0,0,0,2,1.93,7,7,0,0,0,3.93,3.2l12.23,11.57c-1.89,1.48-1,2.76.43,3.76,7,5,13,11.17,19.34,16.93,10.55,9.57,21,19.24,31.83,28.5,5.08,4.34,9.48,9.51,15.28,13,1.63,3.3,5.36,4.32,7.58,7,.64.77,1.71,1.34,2.62.57,1.12-.95,0-1.76-.55-2.48-4.54-6.16-8.91-12.48-13.9-18.27-.81-.94-1.4-5-4.68-2.86-.62-5.45-4.81-8.71-7.88-12.63-1.26-1.62-2.53-3.59-5.1-3.39.2-3.48-8.56-14.25-13-16,.49-2.67-1.38-4.28-2.8-6-3.68-4.57-7.51-9-11.14-13.62-4.63-5.86-9.15-11.81-13.63-17.78-1.2-1.59-2.25-3-4.4-1.55l0,0c.15-2.85.11-5.55-4-4.93h0c2.71-3.05.1-3.39-2-4l-6-10,6,0c1.14,1.05-.6,3.72,1.35,3.75,3.7.05,6.59,2.45,10.45,2.39,18.49-.33,37,.31,55.48-.31,12.45-.42,24.53,3.31,37,2.27.77-.06,1.16.49,1,1.89-7.36,0-14.81.12-22.26-.05-3.1-.08-4.4,1.09-3.92,4.06.77,4.73.49,9.64,2.22,14.18.65,1.68.45,3.59,1.75,5.11,4.56,5.31,6.42,11.3,3.79,18.09-1,2.66-1.09,6.16,1.57,6.18,5.71,0,5.64,3.09,5.94,7.19.17,2.43.61,4.89.74,7.38.3,5.78,5.9,11.45,11.57,11.86,6.35.46,9.24,2.63,9.81,8a101.48,101.48,0,0,1,.06,10.24L272.94,264c.14-.82.31-1.64.4-2.46.57-5.26-2.4-9.4-7.31-10.19-4.28-.69-9.12,2.83-9.94,7.23-.86,4.6,2.36,9.75,7.33,10.16,4.13.33,4.23,3.11,5.07,5.64q18.61,56.42,37.15,112.84Q333.3,471.09,361,555c-1.46,1-1.27,2-.09,3A88.84,88.84,0,0,0,364,573a16,16,0,0,0,.75,5.87c1.8,4.6.66,8.41-3.55,11.17-1.29,0-2.88-.56-3.72.72-4.6,7-10.75,12.78-15.6,19.56-1.06,1.49-2.57,3.37-1.8,5.68l0,0c-4.35-.19-4.89,2.74-5,6.05v0c-2.22-1.54-3.72.27-4.15,1.68-.73,2.39-2.23,2.23-4,2.18-4.15,0-8.31-.14-12.46,0-3.08.13-4.62-.77-5.7-4-1.39-4.18-1.27-8.56-2.77-12.72-2.8-7.81-4.78-15.9-7.44-23.76-1.57-4.63-2.19-9.71-5.6-13.6-.28-2.61.5-5.3-.62-7.87-3.27-7.48-4.47-15.64-7.54-23.15-2.46-6-2-13.41-7.91-17.92v0c.12-1.76,1-3.27.55-5.3-2.33-11.28-7.4-21.69-10.2-32.84-1.55-6.17-4.17-12.22-5.83-18.29-2.2-8-4.58-16-7.22-23.9-2.53-7.57-4.54-15.3-7-22.89C245,412.66,243,405.31,241,398c-.19-1.57.68-3.67-2-4h0c1.06-3.52-1.86-6.17-2.09-9.42a2.26,2.26,0,0,0-2.16-2.34c-1.69-.1-1.56,1.31-1.85,2.41-1.63,6.14-1.06,12.35-1,18.61.22,24.95.31,49.91-.81,74.86-.24,5.27.57,10.58.89,15.87-9.69,3.22-17.64,9.46-26,15-2.08,1.58-6.32.67-5.86,5.13h0c-3.61-.57-2.86,1.76-2.29,3.65,2.86,9.57,5.59,19.18,8.8,28.63,2.58,7.6,2.81,8-.86,9.77l-.89-.93c.5-2-.56-3.61-1.79-5-3.83-4.15-7.81-8.17-11.65-12.32-2.72-2.93-6.57-5.17-6.46-10,6.13-4.4,6.5-7,2-14.08L187,478c1.07-1.25,2.1-2.53,3.21-3.73,4-4.35,3.73-7.84-1.14-12.31q0-58,0-116c1.65-3.07.78-6.8,2.72-9.84,2.11-3.3,1.56-6.26-.94-9.43-2.65-3.34-5.58-6.8-2.57-11.85,1.84-3.08.17-5.7-3.32-6.82-2-.11-3.36-3.44-6.05-1-3,2.72-1.9,6.05-1.79,9.17.08,2.41,2.33,1.66,3.85,1.81l2,0,0,10H183c-1.37.16-1.72,1-2,2.29-1,4.66,2.22,7.06,5,9.69.29.66.58,1.33.88,2q0,60,0,120C184,463,181.73,464.8,181,468c0,1.32,0,2.63,0,4,0,2.52,3.18,2.09,3.81,4q-.06,17.49-.11,35c-.27.35-.53.7-.8,1-3.06,0-6.17-.61-8.32,2.79-.67,1.06-.24,3.49-2.66,3.2-4.34-4.24-8.53-8.58-12.49-13.23-2.94-3.46-5.59-8.58-11.41-8.82-4.1-2.28-4.34-6-4.33-10.21q.28-144.81.38-289.64C145.16,194.37,144.44,192.42,146,190.91Zm1.5,222.38c1.95-1.92,1.47-4,1.48-5.9.33-68.67-.58-137.35.41-206,0-1.48-.25-3.47-1.89-4.31Z" transform="translate(540 371)"/><path class="cls-2" d="M495.1,286.05c1.72,1.54,3.82.88,5.74.88,23.63.05,47.27.13,70.91-.07,4.68,0,6.38.79,6.57,6.16.38,10.94-1.65,20.48-7.49,30.14-13.23,21.89-25.17,44.56-37.64,66.91-1.49-.16-2.48.67-3.4,1.69-2.68,3-3.4,6.95-5.37,10.31C518.34,412.39,512,422.61,508,434A25.3,25.3,0,0,0,501,448.05v0c-2.33-.39-3.16,1.19-4,2.9-2,4-4.79,7.64-6.81,11.45-2.27,4.29-6.61,8.64-4.54,14.54.17.66-.18.95-.76,1.07-1.12.1-2.83-.4-3.21.64-1.93,5.27-6.66,9.31-6.69,15.38h0c-3-1.34-3.88,1.24-4.86,2.88-2.8,4.69-6.65,8.65-10.12,12.68-7.48,8.67-15,17.23-21.75,26.53-1.33,1.84-1.75,4.08-3.7,5.73A61.18,61.18,0,0,0,420,559a86.26,86.26,0,0,0-8.43,9.57c-1.54,2-2.8,4.16-4.31,6.14-3.83,5-8.8,9.27-11.31,15.27-5.36,4.59-10.33,9.5-13.1,16.19-4.77-12.9-9.19-25.93-13-39.17,9.49-21.43,18.91-42.89,28.46-64.29,12.62-28.24,25.39-56.42,38-84.66q23.79-53.3,47.36-106.68c3.67-8.35,8.3-16.32,10.67-25.22A1.91,1.91,0,0,1,495.1,286.05Z" transform="translate(540 371)"/><path class="cls-3" d="M52.9,558c-2.34.42-4.15-.71-5.9-2-.2-1.93-1.92-2.73-3-4-2.54-.53-4.29-1.54-3.37-4.67.31-1.06-.82-1.19-1.63-1.33V302a5.88,5.88,0,0,0-1-3.88c2.29,0,3.33,2,4.9,3.09-.44,28-.26,56-.44,83.94-.32,48.63-1.16,97.28.46,145.91-1.78,9.74-2.19,19,8.26,24.68C51.93,556.16,52.33,557.24,52.9,558Z" transform="translate(540 371)"/><path class="cls-4" d="M-62,286c2.31-.88,1.86-3.42,3-5,1.94-2.09,2.6.92,4,1,2.69.34,1.81,2.45,2,4l-1.72-.14c-1.05-1.18-2.15-2.42-3.9-2-.29.07-.31,1.39-.46,2.14v47.74c-1.18,1.84-.68,3.89-.68,5.85q-.1,68.43-.2,136.85c0,2,.55,4.1-1.49,6C-71.41,491.49-81.18,500.77-91,510l-.1-.17L-91,505c5-1.16,7.36-5.23,10-9,2.24-1.76,6.69-1.31,6-6,4.08-3.38,9.39-5.73,10-12,1.28.58.62,2.13,1.52,3,1.68-3.38,1.49-6.94,1.49-10.49,0-43.28.05-86.56-.09-129.85,0-6,3.76-11.53,2-17.5-3.52-11.78-1.18-23.8-1.9-35.68C-62,287-62,286.5-62,286Z" transform="translate(540 371)"/><path class="cls-5" d="M39,302V543l-2,2V497.54q0-77.09-.06-154.18c0-1.86,1.34-4.55-1.94-5.36,2.18-5.42,2.12-11.1,2-16.8-.09-5.12,0-10.24,0-15.37C37,304.26,36.55,302.35,39,302Z" transform="translate(540 371)"/><path class="cls-6" d="M694.91,286a2.05,2.05,0,0,1,.13.89v78c-1-8.08-1-16.17-1.09-24.26,0-2.23.9-4.67-.93-6.68,0-6,0-12,0-18,0-7.32-.56-14.74.39-21.95.57-4.38-.2-5.15-4.2-5.13q-34.74.18-69.47,0c-3.74,0-4.87,1.08-4.81,4.81.2,13,.05,26,.09,39,0,4.44-2.16,7.39-6,9.33v-2c3.37-3.46,4-7.62,3.9-12.33-.25-12.13.13-24.28-.15-36.41-.1-4.24,1.21-5.34,5.32-5.32C643.7,286.16,669.31,286.06,694.91,286Z" transform="translate(540 371)"/><path class="cls-7" d="M-91.15,272.59c-5.17.63-8.49-1.54-9.89-6.58a15.34,15.34,0,0,1,1.2-5.94L-96,257c2.66-1.28,1.64-3.72,1.65-5.69q.18-34.53.2-69l.06-22.83v.11c0-3.36,0-6.72,0-10.08.09-2,.92-2.15,2.26-.86L-92,253.84c0,1.16-.1,2.36,1,3.15l.43.11.44,0,3,2,2.19,3.9a10,10,0,0,1-4.24,8.92Z" transform="translate(540 371)"/><path class="cls-8" d="M35,338c3.28.81,1.94,3.5,1.94,5.36Q37,420.45,37,497.54V517c-2.49.84-3.7,3-5,5-2.48-.35-3.54,1.66-5,3-1.12,1.48-2.72.87-4.17,1l6.46-6.81c3.39-1.9,5.35-4.3,5.35-8.68q0-85.6.25-171.21C34.93,338.83,35,338.41,35,338Z" transform="translate(540 371)"/><path class="cls-9" d="M-87.11,259.11l-3-2c1.72-1.41,1.07-3.36,1.08-5.09.06-9.41,0-18.82,0-28.23,0-7.73,4-10.18,11-6.78l88,59,0,1.07-2,.91a3.47,3.47,0,0,0-2.82-2.09v0A10.82,10.82,0,0,0-1,272a59.75,59.75,0,0,0-11.84-8.3L-36.24,248.1c-.89-2.15-3.5-1.6-4.81-3.08-2.36-2.92-5.67-4.51-8.86-6.27l-9-5.95a13.61,13.61,0,0,0-5.13-3.61c-5.56-2.29-9.39-7.16-14.8-9.78-5.26-2.56-8.09-1.15-8.12,4.84C-87.06,235.87-87.08,247.49-87.11,259.11Z" transform="translate(540 371)"/><path class="cls-10" d="M-54,158.9c-7.55,3.93-11.69,3-16.93-3.94v0c-1.28-4.32-.22-8.21,2.24-11.82,5.15-4.48,10.3-3.2,15.46,0l2.16,3a1.55,1.55,0,0,0,.2.87,3.49,3.49,0,0,0,.83,3C-50.72,153.28-51.57,156.45-54,158.9Z" transform="translate(540 371)"/><path class="cls-11" d="M1.94,292C.58,287.09,1,282.58,5,278.94l2.93-1,2-.91c1.41,1.58,3.31.78,5,1l5,5c.37,1-1.18,2.1.21,3,.43,6.08-3.26,9.07-8.28,11.06H11c-3.08-.15-1.8,2.24-1.83,3.51C9,308.07,9,315.52,8.93,323l-.71,0c0-.32-.09-.64-.16-1,0-3.94.17-7.88.12-11.82C8.11,303.48,9.77,296.1,1.94,292Z" transform="translate(540 371)"/><path class="cls-12" d="M358,429c4.13,13.8,8.26,27.61,12.82,42.88,2.45-5.25,4.26-9.16,6.08-13.06.51,4.48-.13,8.56-3.49,12-.9.92-.35,3.58-2.44,3-1.64-.44-3.89-1.71-3.83-3.66.17-6.1-2.66-11.36-4.34-16.91-3.58-11.83-7.61-23.53-11.3-35.34-2.35-7.48-4.24-15.11-6.68-22.56-1.84-5.6-2.29-11.72-4.78-16.89a26.94,26.94,0,0,1-3-14.62L341,374h0c4.89,17.18,9.94,34.31,16,51.14A5,5,0,0,0,358,429Z" transform="translate(540 371)"/><path class="cls-13" d="M29.29,519.14,22.83,526,21,528.06c-3,2.64-7.19,4.25-8,8.89L11.9,535.8a27,27,0,0,0,.31-3q0-59.4-.06-118.79c0-8-.28-15.95-.43-23.92L13,390q0,67.95.05,135.91V527c.16,1.39-.58,2.91.54,4.19L15,530c5.18-3.08,7.62-9.15,13-12Z" transform="translate(540 371)"/><path class="cls-14" d="M515,526c-3.73-7.76-7.41-15.55-11.23-23.28-.79-1.58-1.08-3.53-2.79-4.58L499.05,494c-.14-3.47-2.17-6.23-3.7-9.08s-1.14-4.74.84-7.1c4.35-5.17,8.42-10.58,12.6-15.89l.15-.14,8-8.85c0,.36,0,.72.07,1.09-2.4,6.91-8.16,11.51-12.58,16.84-2.35,2.83-3.18,7-7,8.86-1,.47-.79,2.94-.13,4.24,4.39,8.65,9.06,17.19,12.43,26.31C511.64,515.44,516.15,519.77,515,526Z" transform="translate(540 371)"/><path class="cls-15" d="M609,340.08V342c.31,2.31-1.28,3.58-2.61,5.09-5.76,6.55-11.56,13.07-17.13,19.79-6.29,7.6-12,15.63-18.56,23.07-2.12,2.42-4.77,4.68-5.73,8-2.6,2.08-4.35,5.29-8,6,1.34-4,5.78-5.9,7-10l1.06-1.82c1.6-1.13,3.64-1.81,4-4.11h0a15.26,15.26,0,0,0,5-6l0,0c2.81-2.26,4.71-5.27,6.78-8.14l.1-.1A248.4,248.4,0,0,0,597,354h0c3-3.09,6.06-6.08,8.07-9.95Z" transform="translate(540 371)"/><path class="cls-16" d="M359.85,600c.18-8.64,4-11,13.15-8a13.18,13.18,0,0,1,2.91,7.18c-.45.12-1.13.09-1.32.38-4.38,6.61-6.69,7.2-13.27,3.29Z" transform="translate(540 371)"/><path class="cls-17" d="M11.9,535.8,13,537c3.76,2.67,3.65,6.21,2.28,10L12,550.06c-4.14.67-7.86.28-10-4-.32-.7-.65-1.4-1-2.1H1c1.49-1.71,1.31-4,2-6,1.59-1.73,4-1.75,5.89-3C9.85,535.54,10.76,536.15,11.9,535.8Z" transform="translate(540 371)"/><path class="cls-18" d="M8.06,322c.07.32.12.64.16,1l-.33,2.07A4.39,4.39,0,0,0,7,325c-6.18-3.76-12.35-7.56-18.57-11.28Q-32.27,301.34-53,289l.09-2.18,1-.05c8.48,5.18,16.95,10.38,25.46,15.51,5.66,3.41,11,7.33,17.19,9.88A33.37,33.37,0,0,0,1,318.1h0C3.06,319.83,5.07,321.83,8.06,322Z" transform="translate(540 371)"/><path class="cls-19" d="M509.9,252c-.37,1.32-.74,2.64-1.1,4q-6.85,15-13.7,30.11a2.13,2.13,0,0,0-.71.09c-1.22-.26-2.84.18-3.24-1.61-.3-1.33.31-2.11,1.6-2.64,1.71-.7,1.83-2.64,2.73-4,3.37-5.08,1.94-12.68,8.56-16.11,1.5-.78,1-2.71.93-4.15-.09-3.83-.16-7.6,2.86-10.52C509.46,248.34,508.37,250.7,509.9,252Z" transform="translate(540 371)"/><path class="cls-20" d="M508,434c4.07-11.37,10.37-21.59,16.45-31.91,2-3.36,2.69-7.34,5.37-10.31.92-1,1.91-1.85,3.4-1.69l-.24,1.81a6.38,6.38,0,0,0-2.09,3.94l0,.07c-2.78,2.9-4.12,6.63-5.84,10.14l0,0a6.14,6.14,0,0,0-2.13,3.89L509,434Z" transform="translate(540 371)"/><path class="cls-21" d="M-91,257c-1.12-.79-1-2-1-3.15l.15-105.22a3.64,3.64,0,0,1,.81.47q.06,4.46.1,8.91c0,1.63,0,3.26,0,4.9,0,.37,0,.75,0,1.13V219Q-90.92,238-91,257Z" transform="translate(540 371)"/><path class="cls-22" d="M613,518q6.94,16.66,13.89,33.33c.57,1.35,1.3,2.64,2,4a1,1,0,0,0,.19.76v1.94c-3.08-.15-3.56-2.56-4-4.83-1.32-6.27-4.32-12.05-6.61-17.88S612.65,524.45,613,518Z" transform="translate(540 371)"/><path class="cls-23" d="M52.9,558c-.57-.77-1-1.85-1.73-2.27-10.45-5.68-10-14.94-8.26-24.68,1.79-.72.35-3,2.7-4.65-2,6.19,1.67,12.11-2.48,17.26-.42.52.49,1.26.85,1.89,3,5.26,8.71,7.77,12.54,12.21,1.21,1.4,2.64,2.23,2.45,4.27-1.92-.55-2.66-3.07-5-3Z" transform="translate(540 371)"/><path class="cls-24" d="M-125.25,606a56.78,56.78,0,0,0-10.65-8c-2.09-2.05-4.23-4-7-5.07h0a5.9,5.9,0,0,0-3.11-2.62l-9.09-7c.05-.45.1-.89.14-1.33,11.9,6,21.6,15,32,23l-1.07,1.61.11.45Z" transform="translate(540 371)"/><path class="cls-25" d="M546.87,594.14c-4.79-7.79-7.79-16.43-11.85-24.57-.58-1.16-.75-2.56-2-3.28-.25-.45-.49-.91-.74-1.37L533,563a12.16,12.16,0,0,1,4,4.82c2.37,5.41,4.48,11,7.11,16.22C545.79,587.27,547.69,590.29,546.87,594.14Z" transform="translate(540 371)"/><path class="cls-26" d="M597,354a248.4,248.4,0,0,1-16,19.85c.28-6.5,4.6-10.44,9-14.39,1.17-1.05,2.94-1.75,3.09-3.62C593.24,352.74,595.28,353.8,597,354Z" transform="translate(540 371)"/><path class="cls-27" d="M158.87,175.29,157,174.12l-.09-.08-7.83-10.19a1.46,1.46,0,0,0,0-.72c9.36-1.82,18.74-1.11,28.12-.24-7.22.05-14.44.08-21.67.16a16.51,16.51,0,0,0-3.84.44c-.46.12-.23.77.38.79A3.43,3.43,0,0,0,153,164l6,10C159,174.43,158.91,174.86,158.87,175.29Z" transform="translate(540 371)"/><path class="cls-28" d="M533,563l-.78,1.95-1.08-1c0-4.15-2.35-7.43-4.16-10.91l-4-10a1.85,1.85,0,0,1,2.13.22c2.19,1.72,2.45,4.39,3.34,6.6C530.26,554.08,533.48,557.93,533,563Z" transform="translate(540 371)"/><path class="cls-29" d="M397.12,590c-2.53,4.92-7,8.33-9.91,13a.86.86,0,0,0-.3.75,6.06,6.06,0,0,0-3.05,6.32c-1.45-1-.86-2.56-1-3.91,2.77-6.69,7.74-11.6,13.1-16.19Z" transform="translate(540 371)"/><path class="cls-30" d="M536.94,426.92c.6-5.07,4.58-8.11,7.54-11.56,1.87-2.18,4.34-3.79,5.45-6.67.48-1.23,1.7-1.43,2.94-.83l.13.14-3.11,4.69-12.62,14.54Z" transform="translate(540 371)"/><path class="cls-31" d="M564,394c-1.22,4.11-5.66,6-7,10h0l-4,4-.13-.14c1.19-5.78,6-9.35,8.8-14.14C561.83,393.45,563.2,393.89,564,394Z" transform="translate(540 371)"/><path class="cls-30" d="M-110.9,528.25c-.11-.75-1.12-1.45-.1-2.25a5.22,5.22,0,0,0,4-4c.77-1.9,3.84-1.49,4-4l2-2h3c-2.7,4.17-7.06,6.77-10.08,10.64Z" transform="translate(540 371)"/><path class="cls-32" d="M517,452c0-.66,0-1.31,0-2-.33-3.44,4.63-8.57,7.85-8.11l.2.15A54.57,54.57,0,0,1,517,452Z" transform="translate(540 371)"/><path class="cls-33" d="M527,553c1.81,3.48,4.13,6.76,4.16,10.91-1.64-.09-3.76.86-4.17-1.91-.38-3,.42-6.12-1-9Z" transform="translate(540 371)"/><path class="cls-34" d="M508,434l1,0-2,4.9q-3,4.57-5.93,9.14A25.3,25.3,0,0,1,508,434Z" transform="translate(540 371)"/><path class="cls-26" d="M-1,313c-.45,2.12,1.21,3.44,2,5.1a33.37,33.37,0,0,1-10.2-5.94C-6.29,310.37-3.68,312-1,313Z" transform="translate(540 371)"/><path class="cls-26" d="M605,344c-2,3.87-5.1,6.86-8.07,9.95C597.38,348.79,599.32,344.86,605,344Z" transform="translate(540 371)"/><path class="cls-32" d="M524.84,441.89c.44-5.15,3.48-8.18,8.07-10l.23.21A44.38,44.38,0,0,1,525,442Z" transform="translate(540 371)"/><path class="cls-35" d="M-41,245l-2,1c-3.15-1.61-7-2.52-6.91-7.25C-46.72,240.51-43.41,242.1-41,245Z" transform="translate(540 371)"/><path class="cls-36" d="M682,180a2.5,2.5,0,0,0-1.09,2.23,52.43,52.43,0,0,1-9.16-8.12L674,174h2c1.11,1.25.42,3.85,3,4A3,3,0,0,1,682,180Z" transform="translate(540 371)"/><path class="cls-35" d="M416.11,360.1A6,6,0,0,1,417,356c-.86-3.78.11-6.67,4-8.13l.11.18c0,.65,0,1.3-.05,2h0C418.73,353.06,418.69,357.2,416.11,360.1Z" transform="translate(540 371)"/><path class="cls-26" d="M580.82,373.92c-2.07,2.87-4,5.88-6.78,8.14C574.52,377.86,574.93,373.62,580.82,373.92Z" transform="translate(540 371)"/><path class="cls-37" d="M525.05,406c1.72-3.51,3.06-7.24,5.84-10.14C530.51,400.17,529.86,404.3,525.05,406Z" transform="translate(540 371)"/><path class="cls-26" d="M574.06,382a15.26,15.26,0,0,1-5,6C568.48,384.21,569.64,381.78,574.06,382Z" transform="translate(540 371)"/><path class="cls-30" d="M532.91,431.92c-.07-2.07.92-3.8,1.92-5.47s1.35.51,2.11.47l.33.31a12.42,12.42,0,0,1-4.13,4.9Z" transform="translate(540 371)"/><path class="cls-30" d="M-96,514c1-1.33,0-2.67,0-4l4.88-.19.1.17C-92.45,511.59-93.75,513.4-96,514Z" transform="translate(540 371)"/><path class="cls-4" d="M-63,327c-2-2.81-.56-6-1-9C-62,320.82-63.44,324-63,327Z" transform="translate(540 371)"/><path class="cls-26" d="M569.09,388.07c-.38,2.3-2.42,3-4,4.11A4.65,4.65,0,0,1,569.09,388.07Z" transform="translate(540 371)"/><path class="cls-37" d="M530.86,395.82a6.38,6.38,0,0,1,2.09-3.94,36.88,36.88,0,0,1,0,3.79C532.59,399.52,531.55,395.39,530.86,395.82Z" transform="translate(540 371)"/><path class="cls-38" d="M-123,610v-1l-1-1.94-.11-.44c1.7.72,3.29,1.57,4.07,3.39Z" transform="translate(540 371)"/><path class="cls-37" d="M522.9,409.94a6.14,6.14,0,0,1,2.13-3.89C524,407.16,527.15,410.59,522.9,409.94Z" transform="translate(540 371)"/><path class="cls-39" d="M337.08,363.83a26.94,26.94,0,0,0,3,14.62c2.49,5.17,2.94,11.29,4.78,16.89,2.44,7.45,4.33,15.08,6.68,22.56,3.69,11.81,7.72,23.51,11.3,35.34,1.68,5.55,4.51,10.81,4.34,16.91-.06,2,2.19,3.22,3.83,3.66,2.09.56,1.54-2.1,2.44-3,3.36-3.41,4-7.49,3.49-12a1.06,1.06,0,0,1,.2-.77c.65.11,1.65,2.51,1.86-.25.1-1.28,0-2.58,0-3.87h0c1.36.76,1.81.27,2.34-1.17a132.55,132.55,0,0,1,6.06-14.91,13.55,13.55,0,0,0,1.54-8h0c3.26-.4,3.64-3.28,4-5.48,1.07-6.13,4.24-11.56,6.66-17,2.57-5.76,5.18-11.15,5.42-17.5l0,0c3.78-1.25,4-4.95,5.15-7.84,2.25-5.41,3.86-11.1,6.41-16.35,2.45-5.05,5.2-9.85,4.55-15.74h0c5-3.82,5.84-9.27,6-15v0c2.6,0,3.05-2.15,3.87-4,3.51-7.73,5.37-16.09,9.15-23.73,1.75-3.56,3.13-7.32,2.93-11.43,2.81-8.85,6.65-17.3,10.26-25.85,4.32-1.18,4.44-4.4,3.84-8,1.58.78,1.77-.24,2.25-1.45,5.56-14,11.23-27.94,16.84-41.92,1.63-4.06,3.74-8,2.88-12.67h0c5-3.44,6.36-8.39,5.95-14.1a2.13,2.13,0,0,1,.86-2c1.61.16,2.51-.2,3.34-2,2.5-5.44,3.94-11.22,5.77-16.86,1.4-4.31,2.58-7.37,8.35-7.2,15.25.47,30.53.18,45.8.19.09,5.61-4.49,9.61-5.11,15L537,175.94c.88-2.22-.72-2.13-2-1.9-1.67.31-3.62-1-5,.83-.07.1.56.71.87,1.08-1.33.68-2.7,1.29-4,2.06a14.16,14.16,0,0,0-2.19,23.05c.28,3.93-2.38,6.82-3.8,10.1-5.8,13.37-11.92,26.61-17.91,39.9-.47-.12-1.27-.44-1.36-.31-3.62,5.58-8.57,10.69-6.71,18.27h0c-4.77,4.77-7.71,10.38-7.9,17.24,0,2.19-1.22,3.92-2.21,5.73-2.55,2.9-7.86,4.49-4.82,10.07v0c-1,0-2.52-.24-2.63.78-.54,5.38-4.46,9.75-4.42,15.27-.58,1.72-1,3.5-1.76,5.15q-17.16,38.36-34.39,76.66c-.65.13-1.18-2.29-1.85-.16-.33,1.06.25,2.79-.85,3.2-5.44,2-3.16,6.37-3.19,10h0c-1.86.76-2.13,2.3-2,4-1.72,6.4-5.11,12.06-7.92,18-2.08,2.33-5.6,3.18-6.2,7.14-.52,3.44-2.09,6.71-3.15,10.07-2,6.35-6.07,12-6.71,18.81h0c-2.7-1.07-3.5,1.11-3.89,2.78-.45,2-.11,4.14-.12,6.22h0c-1.4-.18-2.05.31-2.92,1.65A18.49,18.49,0,0,0,395,493.93v0c-4-.24-1.41,2.65-1.92,4.07h0c-2.87.34-1.87,2.5-2,4.15a17,17,0,0,1-.73,2.87Q380,528.44,369.48,551.79c-.74,1.64-.81,4.13-3.52,4.26q-14.49-43.32-29-86.64-23.89-72-47.62-144.11c-4.94-15-9.62-30.1-14.42-45.16,1.64-5.68-1.31-10.8-2-16.2l0,0,2.53,2.25a101.48,101.48,0,0,0-.06-10.24c-.57-5.34-3.46-7.51-9.81-8-5.67-.41-11.27-6.08-11.57-11.86-.13-2.49-.57-4.95-.74-7.38-.3-4.1-.23-7.15-5.94-7.19-2.66,0-2.6-3.52-1.57-6.18,2.63-6.79.77-12.78-3.79-18.09-1.3-1.52-1.1-3.43-1.75-5.11-1.73-4.54-1.45-9.45-2.22-14.18-.48-3,.82-4.14,3.92-4.06,7.45.17,14.9.05,22.26.05.19-1.4-.2-1.95-1-1.89-12.42,1-24.5-2.69-37-2.27-18.48.62-37,0-55.48.31-3.86.06-6.75-2.34-10.45-2.39-1.95,0-.21-2.7-1.35-3.75h6c.82,3.28,3.51,1.92,5.38,1.93q47.46.12,94.92.06c6.57,0,8,1.66,6.37,7.74,1.66-1.44,3-.75,4.35.25,1.65,2,1,4.72,2.06,7,4.54,9.43,5.82,19.89,9.35,29.62,1.44,4,1.46,8.75,5.68,11.36h0c.07,2.47-.38,5.09.3,7.39,3.16,10.81,6.31,21.65,10.17,32.23,1.29,3.54.15,8.7,5.27,10.41.06.33.13.67.2,1-1.14,8.06,3,15,4.92,22.35,2.13,8,4.56,16,7.22,23.89.71,2.09-.51,6.09,4,5.74C329.49,337.79,333.66,350.69,337.08,363.83Z" transform="translate(540 371)"/><path class="cls-40" d="M275,280.14c4.8,15.06,9.48,30.15,14.42,45.16Q313.09,397.39,337,469.41q14.38,43.35,29,86.64l.12,1.94c-1.28-.89-2.59-.13-3.89,0l-.3.11A4.16,4.16,0,0,0,361,555q-27.69-83.88-55.37-167.78Q287,330.77,268.49,274.34c-.84-2.53-.94-5.31-5.07-5.64-5-.41-8.19-5.56-7.33-10.16.82-4.4,5.66-7.92,9.94-7.23,4.91.79,7.88,4.93,7.31,10.19-.09.82-.26,1.64-.4,2.46l0,0c-1.66,1.53-2.74,3.2-1.83,5.61C272.46,273.07,273.68,276.61,275,280.14Z" transform="translate(540 371)"/><path class="cls-41" d="M147.5,413.29V197.06c1.64.84,1.91,2.83,1.89,4.31-1,68.67-.08,137.35-.41,206C149,409.34,149.45,411.37,147.5,413.29Z" transform="translate(540 371)"/><path class="cls-42" d="M277,523c-3.31-10.61-6.67-21.2-9.93-31.82q-14-45.77-28-91.55a10.11,10.11,0,0,0-.92-1.71c-.36-2-.72-4-1.09-6l2,2h0a5.42,5.42,0,0,0,2,4c2,7.31,4,14.66,6.29,21.82,2.44,7.59,4.45,15.32,7,22.89,2.64,7.88,5,15.87,7.22,23.9,1.66,6.07,4.28,12.12,5.83,18.29,2.8,11.15,7.87,21.56,10.2,32.84C277.94,519.77,277.09,521.28,277,523Z" transform="translate(540 371)"/><path class="cls-43" d="M235,398c-.07,30.08-.2,60.16-.15,90.24,0,3.89-.92,6.44-4.59,8.39-7.89,4.2-15.16,9.51-23.25,13.39l-1-1c8.34-5.55,16.29-11.79,26-15,3.78-4,1-8.55,1-12.83q.15-43.18,0-86.38a19.4,19.4,0,0,1,1.25-7.3c.88-2.14,1.54-.71,1.75.63C233.77,391.22,235.38,394.71,235,398Z" transform="translate(540 371)"/><path class="cls-44" d="M189.11,345.94q0,58,0,116l-.09,1a2.25,2.25,0,0,1-2.16-1.05q0-60,0-119.95c.59-1.71-1.11-4.4,2.12-5Z" transform="translate(540 371)"/><path class="cls-45" d="M165.12,207.81q12.44,10.86,24.87,21.73c1,.85,2,1.63,3.07,2.44a181.72,181.72,0,0,0,15.83,14.3l2,1.79L224,260l9,8c0,.67,0,1.33.05,2l-1,0c-5.8-3.49-10.2-8.66-15.28-13-10.82-9.26-21.28-18.93-31.83-28.5-6.35-5.76-12.29-12-19.34-16.93C164.14,210.57,163.23,209.29,165.12,207.81Z" transform="translate(540 371)"/><path class="cls-46" d="M236,388.1c-.21-1.34-.87-2.77-1.75-.63a19.4,19.4,0,0,0-1.25,7.3q.12,43.19,0,86.38c0,4.28,2.81,8.83-1,12.83-.32-5.29-1.13-10.6-.89-15.87,1.12-24.95,1-49.91.81-74.86-.06-6.26-.63-12.47,1-18.61.29-1.1.16-2.51,1.85-2.41a2.26,2.26,0,0,1,2.16,2.34c.23,3.25,3.15,5.9,2.09,9.42l-2-2A6.54,6.54,0,0,1,236,388.1Z" transform="translate(540 371)"/><path class="cls-47" d="M178.27,526.94,175,524l1-4c1.45-1.89,2.07-4.39,4.41-5.6,1.29-.66,3.57.13,3.62-2.4.27-.34.53-.69.8-1,.27,1.34.07,3,2.19,3,4.53,7,4.16,9.68-2,14.08Z" transform="translate(540 371)"/><path class="cls-48" d="M293.07,577c0-.93-.09-1.86-.13-2.79L293,572c3.41,3.89,4,9,5.6,13.6,2.66,7.86,4.64,16,7.44,23.76,1.5,4.16,1.38,8.54,2.77,12.72,1.08,3.23,2.62,4.13,5.7,4,4.15-.18,8.31,0,12.46,0v2c-2.49,0-5,.13-7.45.13-10.61,0-10.47,0-13.66-10.48C301.75,604,297.36,590.5,293.07,577Z" transform="translate(540 371)"/><path class="cls-49" d="M293,572l-.09,2.2q-7-21.82-14-43.64c-.5-1.56-1.22-3-1.84-4.56,0-1-.08-2-.11-2.94,5.89,4.51,5.45,11.89,7.91,17.92,3.07,7.51,4.27,15.67,7.54,23.15C293.53,566.66,292.75,569.35,293,572Z" transform="translate(540 371)"/><path class="cls-50" d="M200.14,514.11c1,8.76,4.42,16.9,6.57,25.37,1.39,5.45,3.12,10.81,4.64,16.23.47,1.65,1.85,3.83-.15,4.87-1.67.88-2.59-1.54-3.8-2.54a13.87,13.87,0,0,1-1.61-1.88c3.67-1.82,3.44-2.17.86-9.77-3.21-9.45-5.94-19.06-8.8-28.63C197.28,515.87,196.53,513.54,200.14,514.11Z" transform="translate(540 371)"/><path class="cls-51" d="M167,186.25c-1-.87-2-1.79-1.89-3.32,2.15-1.42,3.2,0,4.4,1.55,4.48,6,9,11.92,13.63,17.78,3.63,4.61,7.46,9.05,11.14,13.62,1.42,1.75,3.29,3.36,2.8,6l-.21.26L183,206c-1-1.33-2.07-2.65-3.11-4a22.82,22.82,0,0,0-4.9-5.82L173,194C171.79,190.8,169.52,188.42,167,186.25Z" transform="translate(540 371)"/><path class="cls-52" d="M165,164h-6l-6,0a3.43,3.43,0,0,1-.95.25c-.61,0-.84-.67-.38-.79a16.51,16.51,0,0,1,3.84-.44c7.23-.08,14.45-.11,21.67-.16l85.69.4c-1.63,1.25-3.53.68-5.3.69Q211.3,164,165,164Z" transform="translate(540 371)"/><path class="cls-53" d="M176,520l-1,4c-2.42-1.59-4.18-3.84-6.05-6-.72-1.89-2.27-3-3.8-4.19q-8-8.93-16-17.87c5.82.24,8.47,5.36,11.41,8.82,4,4.65,8.15,9,12.49,13.23C173.75,519,173.69,521.22,176,520Z" transform="translate(540 371)"/><path class="cls-54" d="M232,270l1,0c3.15-1,1.5-2,0-3-2.35-2.64-4.18-5.75-7.07-7.89L223,255c0-.36.06-.72.08-1.08,3.28-2.11,3.87,1.92,4.68,2.86,5,5.79,9.36,12.11,13.9,18.27.54.72,1.67,1.53.55,2.48-.91.77-2,.2-2.62-.57C237.36,274.32,233.63,273.3,232,270Z" transform="translate(540 371)"/><path class="cls-55" d="M178.27,526.94,185,528c-.11,4.78,3.74,7,6.46,10,3.84,4.15,7.82,8.17,11.65,12.32,1.23,1.34,2.29,2.91,1.79,5C195.58,546.22,186.9,536.6,178.27,526.94Z" transform="translate(540 371)"/><path class="cls-56" d="M361.17,590.08a300.52,300.52,0,0,1-21.12,26c-.77-2.31.74-4.19,1.8-5.68,4.85-6.78,11-12.55,15.6-19.56C358.29,589.52,359.88,590.09,361.17,590.08Z" transform="translate(540 371)"/><path class="cls-57" d="M187,513.93c-2.12.05-1.92-1.62-2.19-3q0-17.48.11-35c.7-1.06,1.39-.18,2.08,0l.07,2Z" transform="translate(540 371)"/><path class="cls-58" d="M189.11,345.94c0-3-.06-6-.1-8.95,4-5.25,3.57-6.87-2.48-9.7-.31-.15-.36-.86-.53-1.3,0-3.33,0-6.66-.05-10,.51-2.14.87-4.26-.94-6,0-.66,0-1.32,0-2,3.49,1.12,5.16,3.74,3.32,6.82-3,5.05-.08,8.51,2.57,11.85,2.5,3.17,3.05,6.13.94,9.43C189.89,339.14,190.76,342.87,189.11,345.94Z" transform="translate(540 371)"/><path class="cls-59" d="M186,326c.17.44.22,1.15.53,1.3,6.05,2.83,6.48,4.45,2.48,9.7-3.23.58-1.53,3.27-2.12,5-.3-.66-.59-1.33-.88-2,.19-4.3-4.93-7.25-3-12H183c.33,0,.66,0,1,0a2.1,2.1,0,0,0,1-1.94Z" transform="translate(540 371)"/><path class="cls-60" d="M187,476c-.69-.21-1.38-1.09-2.08,0-.63-1.95-3.79-1.52-3.81-4,1.64,0,3.27-.05,4.9,0,2.44.12,3.06-1.16,3-3.34,0-2.67-1.76-2.59-3.67-2.68s-2.55,2-4.3,2c.69-3.22,2.91-5,5.81-6.1A2.25,2.25,0,0,0,189,463C192.85,468,190.56,472.14,187,476Z" transform="translate(540 371)"/><path class="cls-61" d="M185,310c1.81,1.77,1.45,3.89.94,6a2,2,0,0,0-2,1l-1,1-2,0c-2.23-2-3.45-4.37-2-7.38C180.66,307.2,183,310.22,185,310Z" transform="translate(540 371)"/><path class="cls-62" d="M223.07,254c0,.36,0,.72-.08,1.08-3.42-3.88-6.08-8.42-10-11.89L211.91,242l-2.15-3.8.33-.27c2.57-.19,3.84,1.78,5.1,3.4C218.26,245.25,222.45,248.51,223.07,254Z" transform="translate(540 371)"/><path class="cls-62" d="M201,228.26,199,226l-2.1-3.86.21-.26c4.47,1.78,13.23,12.55,13,16l-.33.26-2.65-2.28h0A27.73,27.73,0,0,0,201,228.26Z" transform="translate(540 371)"/><path class="cls-63" d="M181,468c1.75,0,2.42-2.13,4.3-2s3.63,0,3.67,2.68c0,2.18-.59,3.46-3,3.34-1.63-.09-3.26,0-4.9,0C181.07,470.65,181.05,469.34,181,468Z" transform="translate(540 371)"/><path class="cls-64" d="M185,310c-2,.24-4.35-2.78-6,.62-1.46,3-.24,5.34,2,7.38-1.52-.15-3.77.6-3.85-1.81-.11-3.12-1.22-6.45,1.79-9.17,2.69-2.44,4,.89,6.05,1C185,308.66,185,309.32,185,310Z" transform="translate(540 371)"/><path class="cls-65" d="M176,520c-2.26,1.21-2.2-1-2.95-2,2.42.29,2-2.14,2.66-3.2,2.15-3.4,5.26-2.77,8.32-2.79,0,2.53-2.33,1.74-3.62,2.4C178,515.62,177.4,518.12,176,520Z" transform="translate(540 371)"/><path class="cls-66" d="M187,476c3.59-3.9,5.88-8,2-13.07l.09-1c4.87,4.47,5.19,8,1.14,12.31-1.11,1.2-2.14,2.48-3.21,3.73Z" transform="translate(540 371)"/><path class="cls-67" d="M365.91,571c-1.32,0-1.84.85-1.94,2a88.84,88.84,0,0,1-3.05-15c.32,0,.65,0,1,.06l.3-.11Z" transform="translate(540 371)"/><path class="cls-68" d="M183,328c-1.88,4.73,3.24,7.68,3,12-2.81-2.63-6-5-5-9.69C181.24,329,181.59,328.16,183,328Z" transform="translate(540 371)"/><path class="cls-69" d="M327,628v-2c1.74,0,3.24.21,4-2.18.43-1.41,1.93-3.22,4.15-1.68C333.39,625.44,331.71,628.82,327,628Z" transform="translate(540 371)"/><path class="cls-50" d="M206,509l1,1a16.87,16.87,0,0,1-6.87,4.1C199.68,509.66,203.92,510.57,206,509Z" transform="translate(540 371)"/><path class="cls-70" d="M340.07,616.06a15.53,15.53,0,0,1-5,6.05C335.18,618.8,335.72,615.87,340.07,616.06Z" transform="translate(540 371)"/><path class="cls-71" d="M165.05,182.91a16.92,16.92,0,0,1-4-4.93C165.16,177.36,165.2,180.06,165.05,182.91Z" transform="translate(540 371)"/><path class="cls-72" d="M183,318l1-1,0,.08c0,3.64,0,7.28,0,10.91-.34,0-.67,0-1,0Z" transform="translate(540 371)"/><path class="cls-71" d="M158.87,175.29c0-.43.09-.86.13-1.3,2.13.59,4.74.93,2,4A3.63,3.63,0,0,1,158.87,175.29Z" transform="translate(540 371)"/><path class="cls-46" d="M241,398a5.42,5.42,0,0,1-2-4C241.68,394.33,240.81,396.43,241,398Z" transform="translate(540 371)"/><path class="cls-73" d="M149,193a4.09,4.09,0,0,1,3.93,3.2A7,7,0,0,1,149,193Z" transform="translate(540 371)"/><path class="cls-74" d="M361.89,558.05c-.32,0-.65,0-1-.06-1.18-1-1.37-2.06.09-3A4.16,4.16,0,0,1,361.89,558.05Z" transform="translate(540 371)"/><path class="cls-75" d="M366.08,558l-.12-1.94c2.71-.13,2.78-2.62,3.52-4.26q10.56-23.31,20.89-46.73a17,17,0,0,0,.73-2.87,6.46,6.46,0,0,0,2-4.15h0A5.86,5.86,0,0,0,395,494v0c2.8-4.29,4.21-9.2,6.1-13.89h0a19.39,19.39,0,0,0,4-9h0c3.08-4,4.49-8.82,6.39-13.32,3.19-7.59,7.35-14.76,9.67-22.7,2.81-5.92,6.2-11.58,7.92-18a5.89,5.89,0,0,0,2-4h0a62.88,62.88,0,0,0,5.89-13.06q17.21-38.32,34.39-76.66c.74-1.65,1.18-3.43,1.76-5.16a58.18,58.18,0,0,0,7.05-16v0A29.94,29.94,0,0,0,484.92,292c1-1.81,2.2-3.54,2.21-5.73C490.85,281,493,275,495,269h0a94.6,94.6,0,0,0,8.07-18c6-13.29,12.11-26.53,17.91-39.9,1.42-3.28,4.08-6.17,3.8-10.1l3.46-1.25L531,201c0,1.36,0,2.72.07,4.08-.79,1.82-1.56,3.64-2.36,5.45l-15.88,36.25-2,4-1,1.15c-1.53-1.28-.44-3.64-2.07-4.85-3,2.92-2.95,6.69-2.86,10.52,0,1.44.57,3.37-.93,4.15-6.62,3.43-5.19,11-8.56,16.11-.9,1.34-1,3.28-2.73,4-1.29.53-1.9,1.31-1.6,2.64.4,1.79,2,1.35,3.24,1.61-2.37,8.91-7,16.88-10.67,25.23q-23.48,53.43-47.36,106.68c-12.61,28.24-25.38,56.42-38,84.66-9.55,21.4-19,42.86-28.46,64.29Z" transform="translate(540 371)"/><path class="cls-76" d="M366.08,558l3.82,9c3.78,13.24,8.2,26.27,13,39.17.13,1.35-.46,2.89,1,3.91,0,.9-.05,1.81-.07,2.72-2.32.8-3.84,0-4.54-2.33-1.15-3.75-2.23-7.53-3.34-11.29A13.18,13.18,0,0,0,373,592a205,205,0,0,0-7.09-21l-3.72-13C363.49,557.86,364.8,557.1,366.08,558Z" transform="translate(540 371)"/><path class="cls-77" d="M437,542c-4.56,4.35-8.09,9.55-12.1,14.36-1.15,1.38-2,3.09-3.84,3.74l-1-1a61.18,61.18,0,0,1,14.55-17.18c1.95-1.65,2.37-3.89,3.7-5.73,6.72-9.3,14.27-17.86,21.75-26.53,3.47-4,7.32-8,10.12-12.68,1-1.64,1.9-4.22,4.86-2.88q-17,21.18-33.91,42.37C439.64,538.18,438.32,540.08,437,542Z" transform="translate(540 371)"/><path class="cls-78" d="M420,559l1,1c-3.61,6.77-9.35,11.92-13.72,18.12-.85,1.2-1.67,2.43-2.51,3.65L397.12,590,396,590c2.51-6,7.48-10.25,11.31-15.27,1.51-2,2.77-4.17,4.31-6.14A86.26,86.26,0,0,1,420,559Z" transform="translate(540 371)"/><path class="cls-77" d="M501,448c-3.49,8.26-8.52,15.69-12.67,23.59-.93,1.75-1.8,3.53-2.7,5.3-2.08-5.9,2.26-10.25,4.53-14.54,2-3.81,4.79-7.47,6.81-11.45C497.88,449.21,498.71,447.63,501,448Z" transform="translate(540 371)"/><path class="cls-77" d="M480.92,485.94q-2,3.46-4.1,6.91L475,494c0-6.07,4.76-10.11,6.69-15.38.38-1,2.09-.54,3.21-.64a6.6,6.6,0,0,0,0,.77,8.76,8.76,0,0,0-2.95,5.22C481.59,484.63,481.26,485.29,480.92,485.94Z" transform="translate(540 371)"/><path class="cls-1" d="M59,562c.19-2-1.24-2.87-2.45-4.27-3.83-4.44-9.5-6.95-12.54-12.21-.36-.63-1.27-1.37-.85-1.89,4.15-5.15.47-11.07,2.48-17.26-2.35,1.6-.91,3.93-2.7,4.65-1.62-48.63-.78-97.28-.46-145.91.18-28,0-56,.44-83.94L43,299a16,16,0,0,0,1.83-1.64c13-15.89,25.78-32,39.12-47.62,12.37-14.5,23.77-29.79,36.25-44.18,5.63-6.49,10.35-13.77,16.77-19.58,0,1,0,2,.05,3,2.57,4.56-.16,9.12-.15,13.68q.24,160.34.12,320.67,0,48.45,0,96.9c0,2.36.84,5.31-3,5.78-.55-1-.84-2.4-1.69-2.92-6-3.71-10.74-9-16.23-13.27-.92-.72-1.16.86-1.88,1.09q-.08-58.62-.17-117.26c0-21.78-.19-43.57-.3-65.35.36-.35.65-.82,1.07-1,6-2.9,7.53-5.74,6.11-12.86-.82-4.12-4.27-5.7-8-6.35-4.13-.72-10.4,2.68-11.43,6.87-.85,3.52-2,7.8,3,10.15,4.18,2,5.71,5.15,5.67,10.2-.27,41.76-.14,83.52-.09,125.28,0,1.77-.59,3.68.69,5.3l0,42.15-.82-1V591.21h-1.15v11.51c-2.95-2.12-5.47-3.62-7.62-5.54Q81.52,579.67,62,562C60.65,560.71,60,560.9,59,562ZM108,398h2c2.84.15,4.62-1,5-4,1.73-2.11,3.19-4.81,1.52-7-1.45-1.92-1.5-4-2.4-5.92l-.21-137.82c-.48-1.75-.55-3.77-1.51-5.18-1.54-2.24-3.5-4.58-6.8-3.67-4,1.12-4.79,4-4.72,8s2.39,3.58,4.9,3.82c2.75.26,4.33,1.07,4.32,4.72-.19,41.6-.11,83.21-.11,124.81,0,2.15.28,4.35-1,6.29L105,382q-4.72-.7-4,4c0,2,0,4,0,5.95C101.57,396.07,103.66,398.35,108,398Zm-5-128c-2.47.35-2,2.28-2,3.86q0,44.14,0,88.28c0,1.58-.48,3.51,2,3.86,4.12.63,4-2,4-4.91Q107,310,107,258.87c0-.66,0-1.33,0-2,0-1.39-.17-2.78-2.07-2.72S103,255.68,103,257Q103,263.52,103,270Zm4,103.23c.3-2.16-.63-3.7-2.8-3.83a2.79,2.79,0,0,0-3.15,3c-.06,2,.18,3.64,2.84,3.58C105.79,376,107.15,375.55,107,373.23Z" transform="translate(540 371)"/><path class="cls-79" d="M134,626c3.81-.47,3-3.42,3-5.78q.06-48.45,0-96.9,0-160.34-.12-320.67c0-4.56,2.72-9.12.15-13.68,3.75-.14,1.86,2.8,1.86,4.07q.23,94.59.2,189.19,0,49.74,0,99.49,0,72-.12,144v6.33a9.94,9.94,0,0,1-5-4C134,627.36,134,626.68,134,626Z" transform="translate(540 371)"/><path class="cls-80" d="M113.73,428.3c.11,21.78.25,43.57.3,65.35q.14,58.64.17,117.26c0,.38-.07.75-.1,1.12-5.5,2.27-2.06-2.79-3.3-4q0-21.07,0-42.14c.08-1.49.23-3,.23-4.48q0-41.67-.06-83.35c0-15.14-.05-30.28,0-45.41C110.94,430.74,109.91,427.86,113.73,428.3Z" transform="translate(540 371)"/><path class="cls-81" d="M139.09,382.24q0-94.59-.2-189.19c0-1.27,1.89-4.21-1.86-4.07,0-1,0-2-.05-3-6.2-5.72-12.7-11.17-18.5-17.28A14.33,14.33,0,0,0,107.1,164q-99,.14-198,.07c0-.38,0-.76,0-1.13q101.13,0,202.27-.09a9,9,0,0,1,6.66,2.55q9.51,8.83,19.36,17.28a7,7,0,0,1,2.7,6q-.25,93.9-.35,187.8C139.75,378.35,140.24,380.4,139.09,382.24Z" transform="translate(540 371)"/><path class="cls-23" d="M59,562c1-1.14,1.68-1.33,3.05-.08q19.49,17.73,39.18,35.22c2.15,1.92,4.67,3.42,7.62,5.54V591.21H110v15.84c-14-12.18-28-24.3-41.91-36.61C65,567.71,61.38,565.5,59,562Z" transform="translate(540 371)"/><path class="cls-82" d="M114.1,612c0-.37.07-.74.1-1.12.72-.23,1-1.81,1.88-1.09,5.49,4.32,10.22,9.56,16.23,13.27.85.52,1.14,1.93,1.69,2.92,0,.67,0,1.35,0,2-5.28-4.47-10.55-9-15.87-13.41C116.89,613.6,116.06,611.92,114.1,612Z" transform="translate(540 371)"/><path class="cls-83" d="M236,388.1a6.54,6.54,0,0,0,1,3.9c.37,2,.73,4,1.09,6L235,398C235.38,394.71,233.77,391.22,236,388.1Z" transform="translate(540 371)"/><path class="cls-84" d="M165.11,513.82c1.53,1.16,3.08,2.3,3.8,4.19C166.4,517.75,163.67,517.68,165.11,513.82Z" transform="translate(540 371)"/><path class="cls-85" d="M549.06,164c-15.27,0-30.55.27-45.8-.2-5.77-.17-6.95,2.89-8.35,7.2-1.83,5.64-3.27,11.42-5.77,16.86-.83,1.8-1.73,2.16-3.34,2,3.29-8.5,6.67-17,9.82-25.53,1.27-3.43,4-2.44,6.27-2.45q44.13-.07,88.27,0,33.42,0,66.82.18c0,.63,0,1.26,0,1.88h-9.87Z" transform="translate(540 371)"/><path class="cls-86" d="M479,206c.86,4.64-1.25,8.61-2.88,12.67-5.61,14-11.28,27.93-16.84,41.92-.48,1.21-.67,2.23-2.25,1.45l-.09-1.16Z" transform="translate(540 371)"/><path class="cls-87" d="M657,164c0-.62,0-1.25,0-1.88l14.77,12a52.08,52.08,0,0,0,9.16,8.13l2,1.82c1.6,2.19,3.93,3.52,6,5.1l7,6.88-1.9,2a8,8,0,0,0-2.81-3.6c-4.13-3.3-8-6.88-12.19-10.2-6.32-5.06-12.21-10.66-18.43-15.85C659.05,167.08,657.14,166.32,657,164Z" transform="translate(540 371)"/><path class="cls-88" d="M442.94,295.86c.2,4.11-1.18,7.87-2.93,11.43-3.78,7.64-5.64,16-9.15,23.73-.82,1.8-1.27,3.92-3.87,4C431.8,321.73,437,308.63,442.94,295.86Z" transform="translate(540 371)"/><path class="cls-88" d="M427,335c-.13,5.74-1,11.19-6,15,0-.66,0-1.31.05-2Q424,341.53,427,335Z" transform="translate(540 371)"/><path class="cls-89" d="M484.94,191.9c.41,5.71-1,10.66-5.95,14.1A75.26,75.26,0,0,1,484.94,191.9Z" transform="translate(540 371)"/><path class="cls-90" d="M457,260.89l.09,1.16c.6,3.56.48,6.78-3.84,8C453.83,266.72,455.44,263.82,457,260.89Z" transform="translate(540 371)"/><path class="cls-91" d="M694,198l1.9-2q0,28.25.07,56.48c0,2.27,0,4-3.45,4-24.65-.24-49.31-.22-74-.25-3,0-6.23.72-5.83-4.2.14-1.7-1.69-1.81-3-1.78-32.93.59-65.88-1-98.81.57l2-4c1.55,1.88,3.7,1.16,5.61,1.16q45,.08,89.94,0c2.56,0,5.56-.23,6.23,2.78.71,3.2,2.52,3.27,5,3.26,23.15-.05,46.31-.12,69.46.06,4.06,0,5-1.27,5-5.13C693.89,232,694,215,694,198Z" transform="translate(540 371)"/><path class="cls-36" d="M688.93,189.15c-2.11-1.58-4.44-2.91-6-5.1C687,183.65,689.09,185.46,688.93,189.15Z" transform="translate(540 371)"/><path class="cls-92" d="M533,563c.45-5-2.77-8.89-4.51-13.17-.89-2.21-1.15-4.88-3.34-6.6a1.85,1.85,0,0,0-2.13-.22,1.39,1.39,0,0,1-.2-.72c1.32-6.51-3.92-10.8-5.61-16.29-.27-.9-1.45-.23-2.21,0v0c1.13-6.18-3.38-10.51-5.29-15.67-3.37-9.12-8-17.66-12.43-26.31-.66-1.3-.87-3.77.13-4.24,3.86-1.82,4.69-6,7-8.86,4.42-5.33,10.18-9.93,12.57-16.84a9.92,9.92,0,0,0,6.9-4.79c4.23-7.58,11.67-12.61,15.62-20.32,2.8-5.45,9-8.5,10.44-14.92,3.34-2.63,6.59-5.32,7-10h0c3.63-.72,5.38-3.93,8-6,5.23,12.83,10.53,25.64,15.67,38.5C586.84,452,592.89,467.5,599,483c-.64,3.29.76,6.12,2,9a10.71,10.71,0,0,0,1.09,5.28c2.45,5.37,4.71,10.83,7.16,16.2.82,1.8.7,4.55,3.79,4.5v0c-.38,6.5,3.14,11.58,5.39,17.28s5.29,11.61,6.61,17.88c.48,2.27,1,4.68,4,4.83h0c-1.61,5.77,2.47,10,4,15A123.35,123.35,0,0,0,643,596c1.45,4.48,2.34,9.26,4.51,13.38s1.44,8.09,1.3,12.12c-.11,2.93-1.94,4.57-5.33,4.56-25.6-.1-51.2-.06-76.8-.07-1.45,0-2.9.24-3.72-1.65-2.55-5.83-5.43-11.51-7.87-17.38-1.35-3.24-2.69-6.27-6-7.94a1.28,1.28,0,0,1-.2-.79c-1-1.2,2.49-4.61-2-4.11v0c.82-3.85-1.08-6.87-2.72-10.13-2.63-5.27-4.74-10.81-7.11-16.22A12.16,12.16,0,0,0,533,563Z" transform="translate(540 371)"/><path class="cls-93" d="M549.09,599c3.31,1.67,4.65,4.7,6,7.94,2.44,5.87,5.32,11.55,7.87,17.38.82,1.89,2.27,1.65,3.72,1.65,25.6,0,51.2,0,76.8.07,3.39,0,5.22-1.63,5.33-4.56.14-4,.84-8-1.3-12.12s-3.06-8.9-4.51-13.38l1-1c1.41,3.16,2.51,6.51,4.28,9.45,3.89,6.46,3,13.4,2.59,20.32-.25,4.54-3.76,4-6.65,4-18.32.06-36.65,0-55,0-7.5,0-15-.09-22.49,0-3.08.06-4.77-1-6-3.94C557.05,616.21,553,607.65,549.09,599Z" transform="translate(540 371)"/><path class="cls-94" d="M644,595l-1,1a123.35,123.35,0,0,1-9.94-23.09c-1.54-4.92-5.62-9.2-4-15A379.37,379.37,0,0,1,644,595Z" transform="translate(540 371)"/><path class="cls-93" d="M546.88,594.12c4.5-.5,1,2.91,2,4.11A6.89,6.89,0,0,1,546.88,594.12Z" transform="translate(540 371)"/><path class="cls-1" d="M165,164q46.29,0,92.57,0c1.77,0,3.67.56,5.3-.69,2.77-.08,5.56,0,8.3-.28,3.09-.34,4.56,1,4.86,3.91a9,9,0,0,0,0,6.09c0,.33,0,.66,0,1-1.32-1-2.69-1.69-4.35-.25,1.62-6.08.2-7.74-6.37-7.74q-47.46,0-94.92-.06C168.51,165.93,165.82,167.29,165,164Z" transform="translate(540 371)"/><path class="cls-22" d="M276,174c0-.32,0-.65,0-1,1.18-.76.89-2,1-3.11,5.72,15.39,9.85,31.3,14.95,46.89a23.2,23.2,0,0,0,1,2.23c0,1,.09,1.94.14,2.91-4.22-2.61-4.24-7.4-5.68-11.36-3.53-9.73-4.81-20.19-9.35-29.62C277,178.71,277.67,176,276,174Z" transform="translate(540 371)"/><path class="cls-39" d="M277,169.9c-.15,1.1.14,2.35-1,3.11a9,9,0,0,1,0-6.09C277,167.69,277.05,168.79,277,169.9Z" transform="translate(540 371)"/><path class="cls-95" d="M-10.94,556.13l-2.33,3.64L-70.2,612.63c-3.78,3.5-7.62,6.93-11.31,10.51a5.25,5.25,0,0,1-5.4,1.59L-85,623c9-8.24,18.18-16.38,27.12-24.73,12.25-11.45,24.26-23.18,36.61-34.53,3.29-3,5.75-7.12,10.25-8.75C-11,555.36-11,555.74-10.94,556.13Z" transform="translate(540 371)"/><path class="cls-96" d="M-85,623l-1.91,1.75c-7.56,1.16-14.26,0-20.18-5.59-3.79-3.58-8.58-6.12-12.92-9.13-.78-1.82-2.37-2.67-4.07-3.39L-123,605a80.07,80.07,0,0,1,13.34,9.2C-102.54,620.37-94.89,624.73-85,623Z" transform="translate(540 371)"/><path class="cls-97" d="M38,298.12a105,105,0,0,0-17.83-12.07c-1.39-.92.16-2-.21-3,3.28,2.14,6.84,4,9.77,6.51,4.15,3.61,9.9,4.88,13.29,9.47l-.12,2.2C41.32,300.08,40.28,298.12,38,298.12Z" transform="translate(540 371)"/><path class="cls-98" d="M599,483c-6.11-15.51-12.16-31-18.34-46.51-5.14-12.86-10.44-25.67-15.67-38.5,1-3.34,3.61-5.6,5.73-8,6.51-7.44,12.27-15.47,18.56-23.07,5.57-6.72,11.37-13.24,17.13-19.79,1.33-1.51,2.92-2.78,2.61-5.09,3.83-1.93,6-4.88,6-9.32,0-13,.11-26-.09-39-.06-3.73,1.07-4.83,4.81-4.81q34.74.22,69.47,0c4,0,4.77.75,4.2,5.13-.95,7.21-.36,14.63-.39,21.95,0,6,0,12,0,18,0,7.82,0,15.64,0,23.46-.06,6.74.22,12.63-5.73,18.7-6.38,6.5-11.58,14.76-17.47,22-7.5,9.19-14.86,18.57-22.84,27.39-1.16,1.29-3.09,2.49-.94,4.5-.62.73-1.25,1.45-1.87,2.17-3-1.58-4,1.44-4.77,2.77-3.13,5.54-8.21,9.4-11.92,14.46C622.84,455.74,617,461.18,613,468c-1.63.89-2.67,2.38-3.91,3.71C605.64,475.39,603.31,480.09,599,483Z" transform="translate(540 371)"/><path class="cls-34" d="M646,430.05c-2.15-2-.22-3.21.94-4.5,8-8.82,15.34-18.2,22.84-27.39,5.89-7.23,11.09-15.49,17.47-22,6-6.07,5.67-12,5.73-18.7.07-7.82,0-15.64,0-23.46,1.83,2,.9,4.45.93,6.68.12,8.09,0,16.18,1.09,24.26v-78c1.52,1.71.88,3.79.88,5.71,0,23.91,0,47.81.09,71.71,0,3.67-.66,6.84-3,9.62-9.16,10.26-18,20.77-26.22,31.81a22.59,22.59,0,0,0-5.83,7.13,127.32,127.32,0,0,0-14,17Z" transform="translate(540 371)"/><path class="cls-99" d="M613,468c4-6.8,9.85-12.24,14.46-18.53,3.71-5.06,8.79-8.92,11.92-14.46.75-1.33,1.78-4.35,4.77-2.77C634.07,445,623.94,457.8,613,469.86,613,469.23,613,468.6,613,468Z" transform="translate(540 371)"/><path class="cls-100" d="M613,518c-3.09,0-3-2.7-3.79-4.5-2.45-5.37-4.71-10.83-7.16-16.2A10.71,10.71,0,0,1,601,492l2,1A200.22,200.22,0,0,1,613,518Z" transform="translate(540 371)"/><path class="cls-101" d="M603,493l-2-1c-1.24-2.87-2.64-5.7-2-9,4.31-2.92,6.64-7.62,10.08-11.32,1.24-1.33,2.28-2.82,3.91-3.71,0,.62,0,1.25,0,1.88l.13.34-3.41,4.7c-1.09,1.17-2.11,2.4-3.28,3.49C602,482.52,599.62,487.09,603,493Z" transform="translate(540 371)"/><path class="cls-102" d="M609.67,474.9l3.41-4.7C613.29,472.74,612.38,474.47,609.67,474.9Z" transform="translate(540 371)"/><path class="cls-103" d="M325.14,324.94c-4.5.35-3.28-3.65-4-5.74-2.66-7.88-5.09-15.85-7.22-23.89C312,287.94,307.87,281,309,273c4.32,13.52,8.67,27,12.93,40.55C323.13,317.28,324.08,321.13,325.14,324.94Z" transform="translate(540 371)"/><path class="cls-104" d="M308.81,272c-5.12-1.71-4-6.87-5.27-10.41-3.86-10.58-7-21.42-10.17-32.23-.68-2.3-.23-4.92-.3-7.39,4.78,12,7.84,24.51,11.85,36.74C306.36,263.05,307.52,267.52,308.81,272Z" transform="translate(540 371)"/><path class="cls-105" d="M-155,582c0,.44-.09.88-.14,1.33-8.24-5.57-8.24-5.57-1.26-12.24l17.56-16.75a3.39,3.39,0,0,0,2.58-2.35l1.2-1.16,1.95-.82,1.1,1c-7.52,7.09-14.94,14.29-22.6,21.21-3.08,2.79-7.33,4.9-.74,8.34C-155,580.7-155.09,581.48-155,582Z" transform="translate(540 371)"/><path class="cls-106" d="M-132,551l-1.1-1,3.22-3.91c6.48-5.76,13.08-11.41,19-17.81l2.77-1.62c0,.47.1.94.14,1.4C-114.94,536.78-123.72,543.63-132,551Z" transform="translate(540 371)"/><path class="cls-107" d="M-142.94,592.89c2.81,1,4.95,3,7,5.07C-139.64,598.21-142.64,597.43-142.94,592.89Z" transform="translate(540 371)"/><path class="cls-108" d="M-129.87,546.06l-3.22,3.91-1.95.82C-134.84,547.56-132.52,546.63-129.87,546.06Z" transform="translate(540 371)"/><path class="cls-108" d="M-136.24,552a3.39,3.39,0,0,1-2.58,2.35C-140.72,550.49-138,551.76-136.24,552Z" transform="translate(540 371)"/><path class="cls-107" d="M-146,590.27a5.9,5.9,0,0,1,3.11,2.62C-146.72,595.3-145.16,591.34-146,590.27Z" transform="translate(540 371)"/><path class="cls-109" d="M213,243.15c3.92,3.47,6.58,8,10,11.89l2.94,4.07-2,.9-13.09-11.94A5.56,5.56,0,0,0,213,243.15Z" transform="translate(540 371)"/><path class="cls-109" d="M196.85,222.17,199,226c-.81.43-1.28,2-2.57.3-4.2-5.42-8.57-10.7-12.86-16-1.05-1.31-.3-2.86-.53-4.27Z" transform="translate(540 371)"/><path class="cls-109" d="M208.89,246.28A181.72,181.72,0,0,1,193.06,232c5.88.62,8.58,5.9,12.71,9C207.06,242,209,243.88,208.89,246.28Z" transform="translate(540 371)"/><path class="cls-110" d="M167,186.25c2.54,2.17,4.81,4.55,6,7.76C168.12,193.65,167.48,190,167,186.25Z" transform="translate(540 371)"/><path class="cls-109" d="M207.11,235.92l2.65,2.28,2.15,3.8C207.35,242.43,205.88,240.56,207.11,235.92Z" transform="translate(540 371)"/><path class="cls-109" d="M201,228.26a27.73,27.73,0,0,1,6.12,7.67C203.83,234.36,201,232.45,201,228.26Z" transform="translate(540 371)"/><path class="cls-110" d="M175,196.22a22.82,22.82,0,0,1,4.9,5.82C175.88,202.1,174.11,200.26,175,196.22Z" transform="translate(540 371)"/><path class="cls-111" d="M550,414c-1.41,6.42-7.64,9.47-10.44,14.92-3.95,7.71-11.39,12.74-15.62,20.32A9.92,9.92,0,0,1,517,454l-.06-1.09c0-.33,0-.65,0-1a54.94,54.94,0,0,0,8-9.93,44.38,44.38,0,0,0,8.1-9.91,12.42,12.42,0,0,0,4.13-4.9l12.62-14.54C549.93,413.13,550,413.57,550,414Z" transform="translate(540 371)"/><path class="cls-112" d="M481.93,484a8.76,8.76,0,0,1,2.95-5.22C484.82,481,484.07,482.89,481.93,484Z" transform="translate(540 371)"/><path class="cls-113" d="M-53,286a3.46,3.46,0,0,1,.09.78c0,.73,0,1.46-.08,2.18-1.22-.39-2.21-1.58-3.69-1.12-1,4.11-.3,8.25-.3,12.37,0,44.07.22,88.15-.15,132.22-.13,15.45-1,30.9-.85,46.36,0,1.17.07,2.36-1,3.2q-.06-74.14-.11-148.28V286l4.36-.11Z" transform="translate(540 371)"/><path class="cls-114" d="M-59.09,333.75Q-59,407.9-59,482c-.3.75-.39,1.72-.92,2.23q-10.63,10.23-21.39,20.31c-1.52,1.42-3.44,2.41-5,3.8C-93.55,514.88-99.38,523-108,528c0-.46-.09-.93-.14-1.4,3-3.87,7.38-6.47,10.08-10.64l2-2c2.25-.61,3.55-2.42,5-4,9.83-9.21,19.6-18.49,29.55-27.57,2-1.86,1.49-3.93,1.49-6q.15-68.43.2-136.85C-59.77,337.64-60.27,335.59-59.09,333.75Z" transform="translate(540 371)"/><path class="cls-18" d="M-54.73,285.9l-4.36.11c.15-.75.17-2.07.46-2.14C-56.88,283.48-55.78,284.72-54.73,285.9Z" transform="translate(540 371)"/><path class="cls-115" d="M-99.84,260.07A15.34,15.34,0,0,0-101,266c-2.27-.73-2.84-2.31-2.82-4.61.27-31.62.41-63.25.72-94.88.06-6.77,5.35-2.52,8.16-3.5,0,.31.06.63.08.94L-96,165c-3.58-1.9-5-1-5,3.22q0,45.17-.24,90.33C-101.31,259.76-100.65,259.88-99.84,260.07Z" transform="translate(540 371)"/><path class="cls-21" d="M-94.9,164-95,163c.29-1.19.58-2.38.88-3.57l-.06,22.83Q-94.53,173.11-94.9,164Z" transform="translate(540 371)"/><path class="cls-21" d="M-94.11,149.48c0,3.36,0,6.72,0,10.08A24.45,24.45,0,0,1-94.11,149.48Z" transform="translate(540 371)"/><path class="cls-116" d="M515,526c.76-.23,1.94-.9,2.21,0,1.69,5.49,6.93,9.78,5.61,16.29-2.2-1.55-1.86-4.63-3.82-6.32Z" transform="translate(540 371)"/><path class="cls-117" d="M519,535.94c2,1.69,1.62,4.77,3.82,6.32a1.39,1.39,0,0,0,.2.72l4,10h-1C523.48,547.39,518.17,542.92,519,535.94Z" transform="translate(540 371)"/><path class="cls-118" d="M-99.84,260.07c-.81-.19-1.47-.31-1.46-1.51q.19-45.17.24-90.33c0-4.23,1.47-5.12,5-3.22,0,28.57-.07,57.14.15,85.7,0,2.11-1.89,4.2-.15,6.3Z" transform="translate(540 371)"/><path class="cls-119" d="M-96,257c-1.74-2.1.17-4.19.15-6.3-.22-28.56-.15-57.13-.15-85.7l1.11-1q.38,9.16.74,18.32-.07,34.51-.2,69C-94.37,253.29-93.35,255.73-96,257Z" transform="translate(540 371)"/><path class="cls-120" d="M-91,257l.1-38a5.66,5.66,0,0,1,1-1.67c2.06-1.65,2.75-5,5.87-5.21,3.28-.19,4.72,2.41,6.06,4.9-7-3.4-11-.95-11,6.78,0,9.41,0,18.82,0,28.23,0,1.73.64,3.68-1.08,5.09l-.44,0Z" transform="translate(540 371)"/><path class="cls-121" d="M404.94,389.92c-.24,6.35-2.85,11.74-5.42,17.5-2.42,5.41-5.59,10.84-6.66,17-.39,2.2-.77,5.08-4,5.48.06-.95.13-1.9.19-2.85l13.86-33.25C403.44,392.41,403.69,390.9,404.94,389.92Z" transform="translate(540 371)"/><path class="cls-116" d="M388.87,429.88a13.55,13.55,0,0,1-1.54,8,132.55,132.55,0,0,0-6.06,14.91c-.53,1.44-1,1.93-2.34,1.17A138.6,138.6,0,0,1,388.87,429.88Z" transform="translate(540 371)"/><path class="cls-116" d="M379,453.93c0,1.29.13,2.59,0,3.87-.21,2.76-1.21.36-1.86.25C377.59,456.62,377.74,455,379,453.93Z" transform="translate(540 371)"/><path class="cls-121" d="M421,350c.65,5.89-2.1,10.69-4.55,15.74-2.55,5.25-4.16,10.94-6.41,16.35-1.2,2.89-1.37,6.59-5.15,7.84,1.14-6.22,5-11.5,6.22-17.68A7.26,7.26,0,0,0,413,368h0a10.07,10.07,0,0,0,2-5v0a3.37,3.37,0,0,0,1.08-2.93h0C418.69,357.2,418.73,353.06,421,350Z" transform="translate(540 371)"/><path class="cls-35" d="M413,368a7.26,7.26,0,0,1-1.91,4.23,18.93,18.93,0,0,1-.06-4.25C411.58,365.4,412.35,368.28,413,368Z" transform="translate(540 371)"/><path class="cls-35" d="M415,363a10.07,10.07,0,0,1-2,5C413,366.07,412.66,364,415,363Z" transform="translate(540 371)"/><path class="cls-35" d="M416.1,360.1A3.37,3.37,0,0,1,415,363C414.26,359.71,414.26,359.71,416.1,360.1Z" transform="translate(540 371)"/><path class="cls-122" d="M33.94,338.16c.32.36.64.72,1,1.09q-.16,85.61-.25,171.21c0,4.38-2,6.78-5.35,8.68L28,518c1.45-1.87,4.14-2.73,4-5.86-.28-8.62.76-17.24.81-25.84.26-46.76.08-93.52.21-140.28,0-4.33-.88-7.38-5.36-8.77-1.32-.41-3.7-1.05-1.56-3.38L28,335C29.65,336.66,31.88,337.26,33.94,338.16Z" transform="translate(540 371)"/><path class="cls-123" d="M-78,217c-1.34-2.49-2.78-5.09-6.06-4.9-3.12.18-3.81,3.56-5.87,5.21a5.66,5.66,0,0,0-1,1.67V164q99,0,198-.07a14.33,14.33,0,0,1,11.38,4.75c5.8,6.11,12.3,11.56,18.5,17.28-6.42,5.81-11.14,13.09-16.77,19.58C107.73,220,96.33,235.25,84,249.75c-13.34,15.62-26.1,31.73-39.12,47.62A16,16,0,0,1,43,299c-3.39-4.59-9.14-5.86-13.29-9.47C26.79,287,23.23,285.17,20,283l-5-5C13.89,276,12.79,274,10,276Z" transform="translate(540 371)"/><path class="cls-124" d="M10,276c2.8-2,3.9,0,5,2.09-1.68-.24-3.58.56-5-1C10,276.7,10,276.34,10,276Z" transform="translate(540 371)"/><path class="cls-125" d="M5.1,275.9C2,276.24-.3,275.42-1,272A10.82,10.82,0,0,1,5.1,275.9Z" transform="translate(540 371)"/><path class="cls-125" d="M7.93,278l-2.93,1c0-1,.07-2.05.11-3.07A3.47,3.47,0,0,1,7.93,278Z" transform="translate(540 371)"/><path class="cls-126" d="M7.89,325.07,8.22,323l.71,0c0,17.13,0,34.27.2,51.41,0,1.51-1.71,4.3,1.86,4.6l1.07,0,.95.91c2.72,3.36,2.9,6.73,0,10.1l-1.3.09c-2.39.56-2.86,2.14-2.82,4.43.12,8.17,0,16.33,0,24.49q-.06,43.49-.13,87c-1.24-1.82-.67-3.88-.68-5.83Q8,448.72,8,397.24c0-3.23.6-6.52-2.75-9a3.57,3.57,0,0,1-.35-5.37,4.8,4.8,0,0,0,4.33,5.06c1.86.3,3.68.18,3.74-2.54.05-2.16-.51-3.51-3-3.39-1.64.08-3.28,0-4.92,0,0-.32,0-.63-.06-.94,2.26-.92,3.08-2.49,3.06-5C7.92,359.05,7.94,342.06,7.89,325.07Z" transform="translate(540 371)"/><path class="cls-127" d="M11,379c-3.57-.3-1.84-3.09-1.86-4.6C9,357.24,9,340.1,8.93,323c.06-7.45.05-14.9.24-22.35,0-1.27-1.25-3.66,1.83-3.51Q11,338,11,379Z" transform="translate(540 371)"/><path class="cls-128" d="M11,379q0-40.94,0-81.87h.88Q12,311,12.17,325q-.06,27-.11,54Z" transform="translate(540 371)"/><path class="cls-129" d="M12.06,379q0-27,.11-54l14,8.89c-2.14,2.33.24,3,1.56,3.38,4.48,1.39,5.37,4.44,5.36,8.77-.13,46.76,0,93.52-.21,140.28-.05,8.6-1.09,17.22-.81,25.84.1,3.13-2.59,4-4,5.86-5.42,2.83-7.86,8.9-13,12-1.66-.34.59-3.17-1.89-3V526c1.06-.85.93-2.06.93-3.21,0-16.77.06-33.52.89-50.29.7-14.25-1.53-28.5-.94-42.79.18-4.14,1.07-8.37.69-12.33-.63-6.64-.22-13.17-.2-19.77,0-7.17,6.14-14.55-.39-21.58-.17-.19,0-.65,0-1q0-10.14,0-20.29V335.12l-1,0v44.8Z" transform="translate(540 371)"/><path class="cls-130" d="M8.79,506q.08-43.47.13-87c0-8.16.1-16.32,0-24.49,0-2.29.43-3.87,2.82-4.43.15,8,.42,15.95.43,23.92q.09,59.4.06,118.79a27,27,0,0,1-.31,3c-1.14.35-2.05-.26-3-.74Z" transform="translate(540 371)"/><path class="cls-131" d="M13,379.94v-44.8l1,0v19.59q0,10.14,0,20.29c0,.33-.13.79,0,1,6.53,7,.42,14.41.39,21.58,0,6.6-.43,13.13.2,19.77.38,4-.51,8.19-.69,12.33-.59,14.29,1.64,28.54.94,42.79C14.06,489.22,14,506,14,522.74c0,1.15.13,2.36-.93,3.21Q13,458,13,390C15.91,386.67,15.73,383.3,13,379.94Z" transform="translate(540 371)"/><path class="cls-131" d="M13.07,527c2.48-.2.23,2.63,1.89,3l-1.35,1.22C12.49,529.93,13.23,528.41,13.07,527Z" transform="translate(540 371)"/><path class="cls-123" d="M8.79,506l.12,29c-1.86,1.2-4.3,1.22-5.89,3-3.64,1-1.38,4-2,6H1c-4.6,3-8.19,7.12-12,11-4.5,1.63-7,5.73-10.25,8.75-12.35,11.35-24.36,23.08-36.61,34.53C-66.82,606.6-75.95,614.74-85,623c-9.89,1.75-17.54-2.61-24.66-8.78A80.07,80.07,0,0,0-123,605c-10.38-8.07-20.08-17.08-32-23-.11-.48-.07-1.26-.35-1.4-6.59-3.44-2.34-5.55.74-8.34,7.66-6.92,15.08-14.12,22.6-21.21,8.27-7.38,17.05-14.23,24-23,8.61-5,14.44-13.15,21.71-19.66,1.55-1.39,3.47-2.38,5-3.8q10.77-10.06,21.39-20.31c.53-.51.62-1.48.92-2.23,1.06-.84,1-2,1-3.2-.17-15.46.72-30.91.85-46.36.37-44.07.13-88.15.15-132.22,0-4.12-.73-8.26.3-12.37,1.48-.46,2.47.73,3.69,1.12q20.72,12.38,41.43,24.74C-5.35,317.46.82,321.26,7,325c-1,18.67,2.15,37.5-2,56.06,0,.31,0,.62,0,.94a2,2,0,0,0-.15.84,3.57,3.57,0,0,0,.35,5.37C8.63,390.72,8,394,8,397.24q0,51.47.08,102.94C8.12,502.13,7.55,504.19,8.79,506Z" transform="translate(540 371)"/><path class="cls-132" d="M-11,555c3.8-3.87,7.39-8,12-11,.33.7.66,1.4,1,2.1-3.54,1-5.07,4.38-7.77,6.36-1.7,1.24-3.41,2.46-5.12,3.69C-11,555.74-11,555.36-11,555Z" transform="translate(540 371)"/><path class="cls-132" d="M1,544c.66-2-1.6-5,2-6C2.29,540,2.47,542.27,1,544Z" transform="translate(540 371)"/><path class="cls-133" d="M5,381.08C9.15,362.52,6,343.69,7,325a4.39,4.39,0,0,1,.89.05c.05,17,0,34,.2,51C8.11,378.59,7.29,380.16,5,381.08Z" transform="translate(540 371)"/><path class="cls-15" d="M550,414c0-.43-.07-.87-.11-1.31L553,408l4-4C556.59,408.68,553.34,411.37,550,414Z" transform="translate(540 371)"/><path class="cls-98" d="M694,198c0,17-.11,34,.07,51,0,3.86-.94,5.17-5,5.13-23.15-.18-46.31-.11-69.46-.06-2.49,0-4.3-.06-5-3.26-.67-3-3.67-2.78-6.23-2.78q-45,0-89.94,0c-1.91,0-4.06.72-5.61-1.16l15.88-36.25c.8-1.81,1.57-3.63,2.36-5.45,2.78-.3,5.6.32,8.38-.77C550.09,200.15,552.11,189,544,179c.62-5.36,5.2-9.36,5.11-15q49,0,98.07,0H657c.14,2.32,2,3.08,3.57,4.35,6.22,5.19,12.11,10.79,18.43,15.85,4.15,3.32,8.06,6.9,12.19,10.2A8,8,0,0,1,694,198Z" transform="translate(540 371)"/><path class="cls-134" d="M544,179c8.16,10,6.14,21.15-4.51,25.34-2.78,1.09-5.6.47-8.38.77,0-1.36,0-2.72-.07-4.08,1.49,0,3,.13,4.47,0,4.92-.31,8-3.08,9.24-7.67s.14-8.71-3.92-11.41c-3.8-2.53-7.9-3.44-11.87-.06v0c-6.51,4-6.74,10.59-.64,17.9l-3.46,1.25A14.16,14.16,0,0,1,527,178c1.27-.77,2.64-1.38,4-2.06H537Z" transform="translate(540 371)"/><path class="cls-135" d="M421.1,435c-2.32,7.94-6.48,15.11-9.67,22.7-1.9,4.5-3.31,9.34-6.39,13.32.64-6.84,4.7-12.46,6.71-18.81,1.06-3.36,2.63-6.63,3.15-10.07C415.5,438.21,419,437.36,421.1,435Z" transform="translate(540 371)"/><path class="cls-136" d="M503.1,251.06A94.6,94.6,0,0,1,495,269c-1.86-7.58,3.09-12.69,6.71-18.27C501.83,250.62,502.63,250.94,503.1,251.06Z" transform="translate(540 371)"/><path class="cls-137" d="M495,269c-2,6-4.18,12-7.9,17.24C487.32,279.4,490.26,273.79,495,269Z" transform="translate(540 371)"/><path class="cls-1" d="M275,280.14c-1.27-3.53-2.49-7.07-3.82-10.59-.91-2.41.17-4.08,1.83-5.61C273.64,269.34,276.59,274.46,275,280.14Z" transform="translate(540 371)"/><path class="cls-138" d="M436.9,399.94A62.88,62.88,0,0,1,431,413c0-3.65-2.25-8,3.19-10,1.1-.41.52-2.14.85-3.2C435.72,397.65,436.25,400.07,436.9,399.94Z" transform="translate(540 371)"/><path class="cls-139" d="M480.1,302.08a58.18,58.18,0,0,1-7.05,16c0-5.51,3.88-9.88,4.42-15.26C477.58,301.84,479.12,302.08,480.1,302.08Z" transform="translate(540 371)"/><path class="cls-140" d="M401.06,480c-1.89,4.69-3.3,9.6-6.1,13.89a18.49,18.49,0,0,1,3.18-12.24C399,480.35,399.66,479.86,401.06,480Z" transform="translate(540 371)"/><path class="cls-139" d="M484.92,292a29.94,29.94,0,0,1-4.82,10.07C477.06,296.48,482.37,294.89,484.92,292Z" transform="translate(540 371)"/><path class="cls-140" d="M405.05,471.05a19.39,19.39,0,0,1-4,9c0-2.08-.33-4.24.12-6.22C401.55,472.16,402.35,470,405.05,471.05Z" transform="translate(540 371)"/><path class="cls-141" d="M537,175.94H531c-.31-.37-.94-1-.87-1.08,1.34-1.87,3.29-.52,5-.83C536.31,173.81,537.91,173.72,537,175.94Z" transform="translate(540 371)"/><path class="cls-142" d="M395,494A5.86,5.86,0,0,1,393,498C393.55,496.62,390.93,493.73,395,494Z" transform="translate(540 371)"/><path class="cls-142" d="M393.06,498a6.46,6.46,0,0,1-2,4.15C391.19,500.54,390.19,498.38,393.06,498Z" transform="translate(540 371)"/><path class="cls-138" d="M431,413a5.89,5.89,0,0,1-2,4C428.88,415.31,429.15,413.77,431,413Z" transform="translate(540 371)"/><path class="cls-143" d="M224,260l2-.9c2.89,2.14,4.72,5.25,7.07,7.89a4.58,4.58,0,0,0,0,1Z" transform="translate(540 371)"/><path class="cls-144" d="M233,268a4.58,4.58,0,0,1,0-1c1.53,1,3.18,1.95,0,3C233,269.31,233,268.65,233,268Z" transform="translate(540 371)"/><path class="cls-72" d="M184,317a2,2,0,0,1,2-1c0,3.32,0,6.65.05,10l-.93.05c-.6-3,1-6.17-1-9Z" transform="translate(540 371)"/><path class="cls-145" d="M184,317.07c2,2.8.43,6,1,9a2.1,2.1,0,0,1-1,1.94C184,324.35,184,320.71,184,317.07Z" transform="translate(540 371)"/><path class="cls-146" d="M528.27,199.81c-6.1-7.31-5.87-13.87.64-17.9.07.62.44,1.48.16,1.8-5.27,6.29-4.74,9.17,2.49,12.42,1.14.51,1.24,1.4,1.55,2.32s1,1.2,1.84.48a82.39,82.39,0,0,0,7.23-6.59c1.48-1.66,1-3.65-.68-5.32-3.48-3.54-7.27-6.16-12.59-5.09,4-3.38,8.07-2.47,11.87.06,4.06,2.7,5.09,6.91,3.92,11.41s-4.32,7.36-9.24,7.67c-1.48.09-3,0-4.47,0Z" transform="translate(540 371)"/><path class="cls-147" d="M113.73,428.3c-3.82-.44-2.79,2.44-2.8,4.34-.05,15.13,0,30.27,0,45.41q0,41.68.06,83.35c0,1.5-.15,3-.23,4.48-1.28-1.63-.69-3.54-.69-5.31,0-41.76-.18-83.52.09-125.28,0-5.05-1.49-8.24-5.67-10.2-5-2.35-3.85-6.63-3-10.15,1-4.19,7.3-7.59,11.43-6.87,3.72.65,7.17,2.23,8,6.35,1.42,7.12-.09,10-6.11,12.86C114.38,427.48,114.09,428,113.73,428.3Z" transform="translate(540 371)"/><path class="cls-148" d="M103,270q0-6.48,0-13c0-1.36,0-2.81,1.9-2.88s2,1.33,2.07,2.72c0,.66,0,1.33,0,2q0,51.12,0,102.22c0,2.9.09,5.54-4,4.91Z" transform="translate(540 371)"/><path class="cls-149" d="M113.89,243.23l.21,137.82c-.6,1.31-1.72.82-2.71.77a31.05,31.05,0,0,1-.5-3.93q-.09-63.92-.16-127.84C110.72,247.15,111.42,244.85,113.89,243.23Z" transform="translate(540 371)"/><path class="cls-47" d="M113.89,243.23c-2.47,1.62-3.17,3.92-3.16,6.82q.13,63.92.16,127.84a31.05,31.05,0,0,0,.5,3.93L109,382c1.3-1.94,1-4.14,1-6.29,0-41.6-.08-83.21.11-124.81,0-3.65-1.57-4.46-4.32-4.72-2.51-.24-4.82.1-4.9-3.82s.69-6.83,4.72-8c3.3-.91,5.26,1.43,6.8,3.67C113.34,239.46,113.41,241.48,113.89,243.23Z" transform="translate(540 371)"/><path class="cls-150" d="M103,270v96c-2.47-.35-2-2.28-2-3.86q0-44.14,0-88.28C101,272.28,100.53,270.35,103,270Z" transform="translate(540 371)"/><path class="cls-151" d="M109,382l2.44-.15c1,.05,2.11.54,2.71-.77.9,1.91,1,4,2.4,5.92,1.67,2.21.21,4.91-1.52,7-2.16.7-3.62,2.29-5,4h-2a30.21,30.21,0,0,0-7-6c0-2,0-4,0-5.95a5.57,5.57,0,0,0,4-4Z" transform="translate(540 371)"/><path class="cls-148" d="M107,373.23c.19,2.32-1.17,2.74-3.11,2.78-2.66.06-2.9-1.55-2.84-3.58a2.79,2.79,0,0,1,3.15-3C106.33,369.53,107.26,371.07,107,373.23Z" transform="translate(540 371)"/><path class="cls-152" d="M101,392a30.21,30.21,0,0,1,7,6C103.66,398.35,101.57,396.07,101,392Z" transform="translate(540 371)"/><path class="cls-153" d="M105,382a5.57,5.57,0,0,1-4,4Q100.3,381.31,105,382Z" transform="translate(540 371)"/><path class="cls-152" d="M110,398c1.38-1.69,2.84-3.28,5-4C114.6,396.93,112.82,398.12,110,398Z" transform="translate(540 371)"/><path class="cls-154" d="M33.94,338.16c-2.06-.9-4.29-1.5-6-3.13C32.06,332.07,32.93,335.25,33.94,338.16Z" transform="translate(540 371)"/><path class="cls-155" d="M4.93,382.86a2,2,0,0,1,.15-.84c1.65,0,3.29.05,4.93,0,2.48-.12,3,1.23,3,3.39-.06,2.72-1.88,2.84-3.74,2.54A4.8,4.8,0,0,1,4.93,382.86Z" transform="translate(540 371)"/><path class="cls-156" d="M528.91,181.93c5.32-1.07,9.11,1.55,12.59,5.09,1.64,1.67,2.16,3.66.68,5.32a82.39,82.39,0,0,1-7.23,6.59c-.81.72-1.48.56-1.84-.48s-.41-1.81-1.55-2.32c-7.23-3.25-7.76-6.13-2.49-12.42.28-.32-.09-1.18-.16-1.8Z" transform="translate(540 371)"/><rect class="cls-157" width="1600" height="1600"/></svg>